<svg width="315" height="232" viewBox="0 0 315 232" fill="none" xmlns="http://www.w3.org/2000/svg">
<path fill-rule="evenodd" clip-rule="evenodd" d="M188.262 66.3306C191.582 64.5002 193.52 61.219 195.438 57.971C195.727 57.4825 196.015 56.995 196.307 56.5132C196.502 56.1905 196.716 55.8579 196.934 55.519V55.5187C197.51 54.623 198.115 53.682 198.492 52.7607C198.657 52.3577 198.8 51.7665 198.944 51.169C199.114 50.4642 199.286 49.7507 199.5 49.3281C199.966 48.4049 203.506 47.9847 205.917 47.6987C206.713 47.6041 207.386 47.5244 207.784 47.4455C212.022 46.6106 217.086 46.1097 220.549 49.3674C221.372 50.1416 222.294 50.8557 223.219 51.5723C224.328 52.4311 225.442 53.2936 226.395 54.2672C227.925 55.8308 229.986 58.461 230.713 60.5499C226.983 61.2559 220.785 63.4185 219.299 67.2625C213.831 62.3337 211.523 70.5431 210.312 74.8508C210.239 75.1136 210.169 75.3622 210.103 75.5921C207.125 74.3267 207.279 70.4761 207.393 67.6564V67.6561C207.409 67.261 207.424 66.8864 207.429 66.5417C207.437 66.0306 207.516 65.498 207.593 64.9784C207.852 63.2366 208.088 61.6422 205.555 61.5018C203.097 61.3661 200.709 62.3491 198.492 63.2696C195.726 64.4184 192.824 66.1366 190.59 68.1104L188.262 66.3306ZM182.889 58.6522C182.889 58.7459 182.887 58.8392 182.886 58.9325C182.878 59.763 182.87 60.5907 183.126 61.3912C183.275 61.854 183.277 62.5307 183.28 63.1804C183.281 63.6514 183.283 64.1084 183.34 64.4598C180.939 63.742 176.477 62.6772 174.026 63.6453C171.682 64.5706 171.387 68.8502 171.304 70.9319C171.283 71.4578 171.358 72.0895 171.436 72.745C171.569 73.8576 171.709 75.0396 171.403 75.8942C171.167 76.5531 171.175 76.7479 171.191 76.7953C171.15 76.7721 170.966 76.7651 170.292 77.2427C169.992 77.4551 169.665 77.6242 169.337 77.794C168.946 77.9964 168.552 78.2 168.199 78.4798C167.259 79.2244 166.938 80.0482 166.553 81.0366C166.453 81.2915 166.35 81.5577 166.23 81.8362C165.663 83.1551 164.153 84.3272 162.467 84.2794C162.682 83.8976 162.909 83.52 163.136 83.1433C164.343 81.1402 165.533 79.167 164.624 76.7826C163.825 74.6856 165.183 72.2318 166.295 70.2223L166.36 70.1045C166.428 69.9812 166.623 69.7073 166.883 69.3396C168.044 67.7029 170.52 64.2121 169.028 63.9154C167.968 63.7043 165.68 68.0521 164.834 69.6598C164.734 69.8507 164.653 70.0033 164.598 70.1045C163.145 69.1399 162.493 67.9509 163.611 66.4982C164.006 65.9844 164.444 65.505 164.881 65.0244C165.395 64.4613 165.909 63.8967 166.36 63.2735C166.758 62.724 167.153 62.1431 167.553 61.5549C168.518 60.1357 169.513 58.6724 170.652 57.4952C173.483 54.5711 178.425 52.5803 182.502 52.5625C182.411 53.7017 182.543 54.7961 182.677 55.9054C182.786 56.801 182.895 57.7061 182.889 58.6522ZM171.2 76.8083C171.202 76.8065 171.199 76.8005 171.191 76.7953C171.195 76.8074 171.199 76.8098 171.2 76.8083ZM194.387 105.373C195.19 103.716 195.892 102.267 196.307 101.535C198.812 97.1077 201.294 92.7178 203.643 88.2083C201.78 88.9059 200.202 89.9752 198.603 91.0588C198.362 91.2222 198.121 91.3857 197.877 91.5485C197.035 92.1125 196.116 92.6215 195.193 93.1332C193.807 93.9017 192.409 94.6763 191.243 95.6508C190.98 95.8713 190.766 96.1157 190.562 96.3489C190.097 96.8809 189.684 97.353 188.845 97.3449C188.272 97.3394 187.459 96.7576 186.733 96.2371C186.31 95.9341 185.916 95.652 185.615 95.5166C185.023 95.2508 184.535 94.9025 184.052 94.5581C183.508 94.17 182.97 93.7866 182.299 93.5311C181.881 93.3719 181.539 93.3187 181.225 93.2698C180.693 93.187 180.238 93.116 179.621 92.565C179.224 94.872 173.701 93.7854 170.119 93.0803C168.929 92.8462 167.953 92.6544 167.45 92.6426C167.259 92.6384 167.06 92.6327 166.857 92.6266C165.066 92.5756 162.842 92.5121 161.282 93.1698C160.087 93.6733 158.675 94.811 157.45 95.7979C156.977 96.1794 156.532 96.538 156.138 96.8292C154.194 98.2644 152.808 100.094 151.377 102.081C149.541 104.63 152.283 104.384 154.262 104.207C154.398 104.194 154.531 104.183 154.658 104.172C159.168 103.796 163.55 104.542 167.897 105.553C171.78 106.457 175.311 107.844 179.028 109.309C179.717 109.58 180.968 110.218 182.38 110.938C185.257 112.405 188.799 114.211 189.598 113.943C190.358 113.688 192.618 109.024 194.387 105.373Z" fill="#00B267"/>
<path fill-rule="evenodd" clip-rule="evenodd" d="M219.584 76.6549C221.149 76.5763 222.707 76.9195 224.272 76.77C222.913 75.6075 221.555 74.4454 220.195 73.2833C219.595 74.3186 219.551 75.4964 219.584 76.6549ZM182.449 52.7607C178.398 52.7782 173.456 54.7765 170.641 57.6949C169.15 59.2416 167.918 61.3187 166.657 63.0563C165.811 64.2223 164.985 65.3476 163.958 66.3722C162.461 67.8654 162.89 68.2068 164.577 69.3312C165.111 68.3488 167.941 63.0962 169.128 63.3324C170.931 63.6919 167.449 69.2399 167.069 69.9311C165.943 71.9762 164.124 74.8327 164.941 76.9896C166.019 79.8367 164.456 81.4592 163.098 83.8852C164.524 83.9257 164.664 83.3798 165.156 82.1857C165.787 80.6511 166.475 79.3691 167.809 78.3082C168.843 77.4865 170.533 77.1406 171.019 76.1486C171.619 74.9224 171.242 72.5012 171.291 71.137C171.365 69.0641 171.37 64.1643 173.696 63.2433C176.133 62.2784 180.515 63.1877 182.897 63.9024C182.599 62.0757 181.661 60.8828 181.674 58.8528C181.688 56.7279 182.284 54.8324 182.449 52.7607ZM151.326 86.6593C153.445 86.0004 155.454 85.3062 157.634 84.8573C159.916 84.3873 160.068 83.8496 161.354 81.928C162.33 80.4714 163.512 79.3362 163.236 77.5524C163.059 76.4081 162.421 75.8507 162.613 74.5638C162.732 73.7663 163.111 72.8957 163.385 72.1372C163.721 71.2068 164.416 70.1516 162.798 70.1057C161.905 70.08 161.861 70.5431 161.256 71.3204C160.14 72.7562 158.856 74.06 157.668 75.4372C155.605 77.8282 153.418 80.3723 151.115 82.5854C148.581 85.0205 146.393 87.9573 144.755 91.0748C144.452 91.6506 142.612 95.0415 143.397 95.7064C144.118 96.3172 148.127 94.8928 148.858 94.7264C152.013 94.0071 155.595 93.7504 158.576 92.4438C160.095 91.7781 163.447 90.9836 164.647 89.9538C165.762 88.9965 165.712 86.6771 165.064 85.3277C163.253 86.4342 150.158 90.6093 151.326 86.6593ZM190.75 67.6292C192.865 65.7536 195.364 64.2489 197.975 63.1339C200.31 62.1367 203.212 61.0251 205.81 61.1982C209.047 61.4136 207.694 63.9743 207.683 66.1547C207.668 69.0484 206.376 73.2165 209.895 74.7179C211.043 70.7114 213.464 61.2374 219.263 66.487C220.745 62.6349 226.031 61.3311 229.753 60.6236C229.078 58.6773 227.029 56.9155 225.609 55.4547C223.832 53.6274 222.429 51.4856 220.649 49.6927C217.133 46.152 210.762 47.289 206.31 48.1717C204.824 48.466 200.516 48.8357 199.796 49.9075C199.344 50.5796 199.596 52.2218 199.262 53.0437C198.801 54.1759 198.013 55.2257 197.381 56.2715C195.075 60.0877 192.729 63.9287 188.782 66.114L190.75 67.6292ZM203.655 88.1884C201.567 88.975 200.031 90.2906 198.179 91.3983C195.934 92.7417 193.301 93.9999 191.286 95.6589C190.548 96.2658 190.134 97.314 189.116 97.382C188.231 97.4412 186.882 96.4314 186.097 96.0782C184.78 95.4846 183.523 94.5853 182.2 94.0564C181.112 93.6217 180.631 93.7105 179.69 92.865C179.162 95.9495 169.562 93.0664 167.548 93.0193C165.685 92.9758 163.128 93.1927 161.394 93.928C159.742 94.6288 158.45 96.171 157.036 97.2216C155.097 98.6625 153.248 100.12 151.82 102.114C149.862 104.849 152.816 104.075 154.786 103.91C159.284 103.532 163.659 104.584 167.994 105.599C171.869 106.506 175.696 107.595 179.406 109.066C181.493 109.894 183.688 110.654 185.651 111.73C186.685 112.297 188.363 113.685 189.55 113.285C190.638 112.918 191.723 109.854 192.383 108.63C193.665 106.254 195.013 103.918 196.337 101.566C198.836 97.1219 201.312 92.7151 203.655 88.1884ZM177.962 147.005C179.249 146.279 181.346 146.474 182.769 146.17C184.377 145.827 185.994 145.267 187.527 144.683C189.079 144.092 190.546 143.488 191.965 142.748C192.614 142.41 193.479 142.077 194.078 141.608C194.561 141.23 194.737 140.527 195.183 140.184C196.345 139.289 196.687 139.851 196.843 138.124C197.012 136.249 195.94 135.187 194.606 133.783C193.412 132.527 191.861 131.441 190.36 130.557C189.696 130.167 188.987 129.727 188.31 129.354C187.285 128.789 185.911 127.85 185.374 129.062C186.494 129.343 186.741 130.747 185.729 131.252C185.174 131.53 184.334 131.122 183.708 131.417C182.742 131.872 181.812 133.141 180.985 133.825C178.27 136.07 175.673 136.911 172.12 137.092C164.694 137.468 156.918 136.636 149.635 135.555C147.761 135.277 145.89 135.578 143.998 135.512C142.157 135.448 140.238 135.052 138.428 134.747C134.943 134.159 131.269 133.675 127.838 132.81C123.689 131.764 119.525 130.41 115.629 128.658C111.892 126.976 107.668 124.198 103.471 123.983C105.262 125.706 107.946 126.369 110.101 127.504C111.861 128.43 114.615 129.025 115.728 130.552C116.452 131.546 116.815 133.372 117.362 134.537C117.967 135.827 118.526 137.137 119.086 138.446C119.648 139.763 120.234 141.081 120.691 142.437C120.974 143.279 121.096 145.024 121.764 145.599C122.83 146.517 126.397 146.925 127.834 147.23C130.516 147.801 133.574 147.725 136.31 147.765C137.44 147.781 138.58 147.932 139.66 147.953C141.177 147.982 141.032 147.724 141.01 146.43C140.998 145.654 141.014 144.241 142.071 144.881C142.792 145.317 142.296 147.247 142.163 147.933C148.201 148.524 154.5 148.821 160.51 148.623C166.419 148.429 172.124 147.68 177.962 147.005ZM205.23 133.394C206.295 125.881 207.593 118.243 209.046 110.827C210.515 103.334 212.281 95.9084 214.267 88.4431C212.955 88.1346 211.643 87.8271 210.331 87.5193C210.282 89.0922 209.741 90.4586 209.51 92.0243C209.191 94.1854 208.582 96.2839 208.217 98.4381C207.524 102.533 206.24 106.539 205.109 110.532C203.956 114.603 203.571 118.796 202.511 122.888C201.638 126.258 201.192 129.97 200.705 133.435C199.522 141.841 197.837 150.264 196.554 158.674C195.352 166.559 195.231 174.604 195.3 182.563C195.343 187.422 196.098 192.267 196.058 197.133C196.048 198.335 196.151 199.534 196.215 200.735C196.26 201.582 195.796 203.931 196.19 204.64C196.438 205.09 197.507 205.504 197.886 206.128C198.484 207.115 198.61 208.295 199.572 209.042C200.351 205.956 199.983 201.882 199.812 198.732C199.648 195.698 199.967 192.561 200.031 189.48C200.154 183.435 200.48 177.479 200.795 171.431C201.141 164.799 202.125 158.006 203.086 151.423C203.96 145.438 204.543 139.347 205.23 133.394ZM176.713 39.1775C176.291 39.1385 175.869 39.1002 175.446 39.0615C175.509 39.9357 175.321 41.3516 175.949 41.8077C176.424 42.1533 177.387 42.0397 177.964 42.15C179.853 42.5128 182.043 42.8164 183.918 42.1554C184.647 41.8987 184.179 41.4966 185.182 41.6637C186.391 41.8654 185.95 42.0533 186.299 42.7937C186.568 43.3653 186.706 44.338 187.012 45.0243C187.42 45.9424 188.248 47.5857 187.894 48.646C187.55 49.6767 186.267 49.9882 185.721 51.1554C185.315 52.0233 185.411 53.2848 185.2 54.2406C184.919 55.5154 184.564 56.7853 184.406 58.0837C184.209 59.7195 184.277 61.6389 186.34 61.8924C188.256 62.1283 189.625 61.5238 190.91 60.1539C193.363 57.5387 196.164 53.8473 197.605 50.5576C197.773 50.1733 198.188 49.532 198.13 49.1206C198.016 48.3068 197.966 49.1305 197.703 48.5653C197.452 48.0249 197.059 47.5346 196.828 46.935C195.996 44.7808 195.406 42.5228 195.072 40.2423C194.921 39.2092 194.87 38.1888 194.896 37.1457C194.904 36.7895 195.122 35.7202 194.992 35.4761C194.86 35.229 194.17 35.1151 193.955 34.8698C193.556 34.4152 192.871 33.1316 192.429 32.7912C191.885 32.3731 190.669 32.7045 190.449 31.8725C190.095 30.5415 198.454 28.3735 194.549 26.5974C191.634 25.2712 187.162 31.9749 186.142 26.6999C185.966 25.7862 186.302 24.5459 185.894 23.7085C185.443 22.783 184.215 22.4371 183.357 21.9867C182.263 21.4125 181.157 20.8223 180.094 20.1934C179.364 19.7624 178.313 18.6178 177.536 18.513C177.842 20.0666 177.256 21.6066 177.246 23.1571C178.928 22.7101 180.086 22.7006 181.746 23.4955C182.537 23.8737 185.516 26.0205 184.006 27.0531C182.784 26.3433 181.476 25.7277 180.113 25.3104C179.575 25.1456 178.904 24.9215 178.332 24.9101C177.004 24.8839 177.191 25.0202 176.693 26.003C176.213 26.9498 176.316 29.419 175.261 30.0236C174.171 30.6488 175.012 29.7737 174.081 29.9757C173.549 30.0912 172.971 30.479 172.484 30.698C173.151 31.4082 174.495 32.0565 174.937 32.8452C175.582 33.9953 175.358 36.3736 175.459 37.6317C176.303 37.3351 177.191 37.323 178.046 37.1028C178.85 36.8953 179.965 35.9981 180.049 37.3173C180.143 38.7872 177.776 39.1775 176.713 39.1775ZM187.696 77.8819C187.761 76.6117 187.833 75.3417 187.977 74.0766C188.074 73.2271 188.896 70.7633 188.432 70.0172C187.927 69.2055 186.235 69.1538 185.42 68.959C183.859 68.5853 182.362 68.2793 180.775 68.0325C179.316 67.8056 177.941 67.7579 176.471 67.6921C174.869 67.6211 174.472 67.2039 174.118 68.9366C173.84 70.2993 173.467 71.7185 173.415 73.1135C173.366 74.4231 173.769 75.5598 172.448 76.4422C175.349 76.4422 179.129 73.905 181.777 76.1736C185.565 79.418 178.973 80.3527 177.235 81.0689C178.68 81.7586 180.825 82.3002 181.505 83.8753C182.268 85.6409 181.161 86.3916 179.466 86.533C179.625 87.2136 180.235 87.6555 180.417 88.4739C180.683 89.6734 179.82 89.2762 180.922 90.2045C182.372 91.4261 185.359 92.243 187.138 93.0211C187.555 93.2042 187.977 93.3758 188.403 93.5365C189.07 94.1189 189.561 94.008 189.879 93.2033C190.792 92.636 191.605 91.3702 192.414 90.6341C194.215 88.9956 196.203 87.558 198.344 86.375C197.457 86.014 196.395 86.8296 195.544 86.4327C194.856 86.1119 195.115 85.528 194.703 85.0908C194.868 84.5208 194.694 84.3124 194.18 84.4655C193.922 84.4924 193.683 84.4495 193.462 84.3374C193.032 83.8133 192.838 83.6418 192.81 82.8325C192.779 81.974 193.286 81.671 193.48 80.9834C194.112 80.5608 194.098 80.1454 193.437 79.7382C193.165 79.3023 193.017 78.8296 192.993 78.3193C192.867 76.4256 194.628 75.6622 195.97 74.6605C193.566 74.401 193.658 71.6324 195.321 70.4223C197.045 69.1674 200.695 69.6813 202.78 69.9643C203.213 70.0226 204.384 70.5718 204.823 70.2217C205.091 70.0072 204.902 68.1932 204.914 67.873C204.942 67.1462 205.122 66.2795 205.004 65.5563C204.757 64.0423 205.28 64.8047 204.17 64.7627C201.529 64.6622 198.165 66.9266 195.841 67.9941C193.24 69.1892 191.568 69.3728 191.541 72.336C191.515 75.1414 190.714 77.9369 190.364 80.6979C190.211 81.9036 190.102 88.1679 187.855 85.8563C186.984 84.9594 187.542 83.5807 187.606 82.4748C187.695 80.9532 187.642 79.4078 187.696 77.8819ZM42.3795 171.798C43.6657 172.022 45.7599 171.297 47.163 171.221C49.6159 171.089 52.142 170.859 54.5455 170.358C56.4256 169.965 58.5682 169.62 59.5821 167.833C60.4886 166.236 60.8089 164.236 61.297 162.492C61.5564 161.567 62.2254 160.225 62.2251 159.268C62.2248 158.023 62.0541 158.268 60.7323 157.587C59.0591 156.725 57.4312 155.523 55.6264 155.034C55.0804 154.929 54.5341 154.827 53.9874 154.726C53.2802 154.324 52.8813 154.522 52.7887 155.32C52.0984 156.035 51.6938 157.352 51.1146 158.188C49.7943 160.094 48.2264 161.392 46.178 162.491C42.4918 164.468 39.0572 165.994 35.1093 167.287C32.9335 167.999 30.9272 168.999 28.8006 169.784C27.0968 170.414 24.7454 170.605 23.4366 172.006C21.9599 173.586 24.2297 174.16 25.4913 175.229C26.525 176.104 26.5451 176.305 27.9591 175.88C29.0125 175.563 29.9465 174.958 30.958 174.547C34.4233 173.142 38.6174 172.207 42.3795 171.798ZM121.573 196.862C120.282 196.588 118.99 196.313 117.699 196.039C118.969 198.368 121.64 201.775 119.723 204.47C119.006 205.476 117.815 205.763 116.75 206.274C115.461 206.892 114.271 207.684 113.053 208.421C108.03 211.458 102.925 214.538 97.6316 217.145C99.2887 217.67 101.836 218.033 103.543 217.576C105.53 217.043 107.37 215.819 109.411 215.284C113.071 214.325 116.923 213.508 120.642 213.016C123.682 212.614 131.29 213.522 130.921 209.033C130.57 204.771 127.978 200.705 127.206 196.491C125.313 196.904 123.507 196.832 121.573 196.862ZM198.551 128.646C200.023 121.551 200.903 114.336 202.639 107.292C203.505 103.778 204.115 100.216 204.962 96.7011C205.355 95.0659 205.653 93.4144 206.036 91.7823C206.425 90.1299 207.26 88.605 207.451 86.8967C206.045 87.2387 205.719 90.4024 205.293 91.5926C204.511 93.776 203.658 95.8743 202.653 97.965C201.055 101.288 199.36 104.494 197.557 107.715C195.657 111.114 193.65 114.381 191.275 117.484C190.495 118.504 189.437 119.303 188.934 120.421C188.143 122.181 187.811 124.278 187.056 126.109C187.588 126.374 188.962 126.44 189.614 126.566C190.827 126.801 191.677 127.01 192.842 127.577C194.895 128.575 196.619 129.758 197.991 131.553C198.336 130.632 198.425 129.621 198.551 128.646ZM141.335 182.776C141.311 175.944 141.212 169.052 141.326 162.27C141.358 160.387 141.514 158.355 141.792 156.487C141.967 155.312 142.994 152.815 142.319 152.252C141.741 151.77 138.694 152.087 137.947 152.07C136.497 152.037 135.051 151.974 133.598 151.867C133.598 154.399 134.605 157.275 135.073 159.779C135.509 162.116 135.868 164.466 136.228 166.813C137.008 171.896 137.23 177.05 138.076 182.146C138.843 186.768 139.854 191.369 140.412 195.99C140.718 198.526 141.337 200.92 141.819 203.454C142.07 204.776 142.987 210.221 144.141 210.756C144.385 208.803 143.388 206.445 143.21 204.47C143.026 202.431 142.883 200.378 142.546 198.329C142.151 195.923 141.951 193.457 141.8 191.021C141.707 189.53 141.679 188.044 141.548 186.555C141.453 185.474 141.036 183.836 141.335 182.776ZM177.596 91.408C177.644 90.664 175.683 90.6939 175.318 89.8387C174.576 88.102 176.265 88.4147 177.303 88.2349C176.933 87.2692 170.001 87.6208 171.616 85.0138C172.737 83.2049 176.985 85.9735 178.121 84.2547C178.867 83.1258 176.836 82.9702 176.03 82.8572C174.818 82.6866 171.963 83.2379 172.057 81.6933C172.175 79.7527 177.726 78.4133 179.284 77.8433C179.111 76.5144 172.43 78.4033 171.463 78.9419C169.275 80.1611 167.598 82.3488 167.277 84.78C166.903 87.6087 168.364 89.8366 171.241 90.5308C172.44 90.8202 173.327 90.8525 174.437 91.2875C175.167 91.5735 177.531 92.2871 178.032 91.5651C177.886 91.5128 177.741 91.4603 177.596 91.408ZM216.817 73.8132C216.928 72.6051 217.963 70.3311 216.77 69.5375C215.1 68.4267 214.409 70.257 214.03 71.3566C213.568 72.6991 211.623 75.9851 213.324 76.8216C213.719 77.0162 215.594 76.7899 215.924 76.6615C216.846 76.8971 217.143 76.5585 216.817 75.6444V73.8132ZM176.071 171.367C175.966 168.065 177.471 164.096 178.324 160.862C179.291 157.198 179.801 153.461 180.825 149.838C179.686 149.973 178.535 150.083 177.409 150.307C175.873 150.614 175.845 150.565 175.956 152.045C176.12 154.268 175.905 156.447 175.788 158.668C175.554 163.117 176.124 167.638 175.745 172.058C176.083 172.142 176.191 171.912 176.071 171.367ZM218.607 84.8377C222.298 85.3926 225.835 86.5417 229.194 88.0857C231.046 88.9367 233.085 89.8514 235.154 90.1912C237.452 90.5691 239.89 90.3918 242.238 90.5374C243.065 90.5888 245.241 90.9836 246.048 90.5057C246.847 90.032 246.784 89.2297 246.822 88.273C246.919 85.8125 245.785 83.4034 244.765 81.1958C243.89 79.3017 243.229 77.8556 241.871 76.2265C240.128 74.134 238.61 71.8759 236.977 69.6918C235.746 68.0458 234.502 66.423 233.248 64.7788C232.35 63.6012 232.393 63.1961 231.04 63.3279C229.708 63.4577 228.367 64.2311 227.112 64.6407C225.25 65.2491 222.994 65.5829 221.296 66.5556C220.198 67.1846 220.149 67.3003 220.162 68.3977C220.174 69.42 220.51 70.667 221.132 71.4666C222.426 73.1268 224.57 74.0056 226.411 74.8339C227.475 75.3127 228.395 75.9924 229.343 76.6531C230.364 77.3654 232.424 77.785 233.206 78.597C235.48 80.9617 231.339 80.4943 230.182 80.423C227.685 80.2687 225.202 80.2923 222.687 80.2904C219.941 80.2886 217.217 80.1633 214.511 80.2509C212.925 80.3022 211.106 79.5126 210.079 78.1964C209.582 77.5587 209.388 76.956 208.738 76.2945C207.886 75.4284 207.144 74.5158 206.108 73.8455C204.411 72.7486 201.328 72.1281 199.309 72.5375C200.032 72.6366 203.433 73.7736 201.936 75.2028C201.753 75.3768 199.566 75.4906 199.09 75.7051C198.232 76.0921 197.151 76.6546 196.647 77.4717C198.113 77.2306 203.548 76.9515 200.775 79.7129C200.095 80.3907 198.141 81.0671 199.804 81.7879C200.185 81.9534 200.95 81.719 201.441 81.8682C202.172 82.0905 202.77 82.6848 203.454 83.0016C205.396 83.9012 208.073 84.4559 210.1 84.2589C212.902 83.9858 215.823 84.4773 218.607 84.8377ZM144.286 168.039C144.382 172.006 144.236 175.996 144.322 179.981C144.414 184.236 144.97 188.407 145.235 192.62C145.473 196.395 145.992 200.099 146.414 203.856C146.657 206.021 146.936 208.09 147.309 210.239C147.659 212.249 147.718 214.02 145.271 214.56C140.593 215.594 139.866 208.985 138.962 206.2C137.612 202.044 136.747 197.681 136.078 193.372C134.833 185.348 133.177 177.436 132.531 169.344C132.134 164.361 131.557 159.429 131.229 154.451C131.165 153.475 131.419 151.972 130.546 151.537C130.021 151.277 128.576 151.274 127.914 151.085C126.069 150.558 124.367 149.782 122.566 148.976C123.844 155.538 124.266 162.067 125.225 168.686C125.733 172.198 126.706 175.837 127.55 179.294C128.424 182.876 128.618 186.733 129.626 190.237C130.07 191.781 130.446 192.41 129.802 193.996C129.011 195.942 129.535 196.407 130.527 198.318C132.351 201.834 133.743 205.983 133.434 209.947C133.182 213.184 130.691 214.879 127.606 215.752C123.746 216.844 119.705 216.715 115.823 217.955C112.44 219.035 109.003 219.834 105.718 221.26C104.393 221.835 103.135 222.518 101.664 222.623C99.6468 222.767 98.2865 221.618 96.3814 221.378C95.1906 221.229 93.447 221.787 92.761 220.561C92.2172 219.589 92.8324 217.468 93.5153 216.686C95.433 214.488 99.2736 212.572 101.86 211.275C104.841 209.78 107.725 207.908 110.487 205.979C112.161 204.809 113.868 203.686 115.54 202.514C116.647 201.738 117.067 201.733 116.955 200.501C116.864 199.518 116.413 198.565 116.334 197.559C116.274 196.788 116.549 195.737 116.178 195.234C115.905 194.863 114.881 194.601 114.478 194.32C113.005 193.295 112.671 192.026 112.002 190.467C110.483 186.924 108.737 183.481 107.27 179.91C104.12 172.243 102.198 164.181 99.5868 156.358C96.9191 148.365 94.5335 139.974 93.0644 131.682C91.0984 132.269 89.2428 134.869 87.6771 136.155C85.5619 137.894 83.3944 139.575 81.3202 141.361C77.9201 144.289 74.4772 147.136 71.6674 150.643C70.3136 152.332 69.2053 154.149 67.9797 155.923C67.2719 156.948 66.6117 158.109 65.8452 159.084C65.7221 159.24 65.7184 159.562 65.5858 159.695C65.2939 159.988 64.7362 159.598 64.5492 159.791C63.3938 160.977 63.4088 164.345 63.0489 165.911C62.5527 168.068 61.9956 170.549 60.2804 172.036C57.6306 174.332 52.7441 174.688 49.3907 174.807C45.0872 174.96 40.9125 176.138 36.8295 177.403C34.925 177.992 33.0704 178.683 31.1589 179.255C30.0594 179.585 28.8052 180.243 27.6311 180.116C26.2151 179.964 25.0971 178.794 24.0599 177.924C22.4006 176.533 20.8643 175.162 20.9193 172.879C20.9777 170.463 22.3104 168.64 24.41 167.44C28.469 165.119 33.0089 163.632 37.3841 162.029C39.0606 161.414 40.496 160.734 42.099 159.906C44.3643 158.737 46.9716 157.782 48.9816 156.238C49.5741 155.782 51.752 154.386 51.9375 153.666C51.9618 153.572 51.4176 152.473 51.4151 152.299C51.4099 151.85 51.6803 151.364 51.8467 150.98C52.8936 148.564 54.6494 146.236 55.9919 143.958C58.4504 139.783 60.9184 135.587 63.7687 131.661C69.4526 123.834 75.8375 116.169 82.7287 109.337C86.0882 106.006 88.9912 102.228 92.3981 98.9429C93.7479 97.6418 95.1728 96.5821 96.8357 95.7375C98.6898 94.7962 100.771 94.6116 102.896 94.324C108.045 93.628 112.346 95.1239 117.18 96.4256C121.751 97.656 126.326 98.694 130.922 99.9757C135.97 101.383 140.966 102.733 145.997 104.267C148.686 105.087 151.451 105.59 154.152 106.376C155.453 106.754 160.37 109.126 161.454 108.347C158.038 106.773 154.539 105.338 150.884 104.388C149.808 104.108 149.12 104.418 149.16 103.204C149.182 102.542 149.94 101.649 150.212 101.104C150.865 99.7993 151.605 98.5242 152.244 97.2159C149.927 97.862 143.699 100.098 141.953 97.7865C140.126 95.3668 141.651 90.6232 142.797 88.2543C145.786 82.0703 150.87 76.9098 155.824 72.2481C156.896 71.2403 159.205 69.9241 159.777 68.6403C159.95 68.25 159.572 67.6766 159.964 67.1698C160.197 66.868 161.133 66.6619 161.507 66.3369C162.869 65.1527 163.956 62.6612 164.897 61.1087C165.883 59.4829 166.771 57.7224 168.01 56.2636C170.036 53.8784 172.128 51.35 175.409 50.792C177.018 50.5186 178.727 50.6645 180.269 50.1187C182.134 49.4586 183.906 48.4188 185.789 47.7352C185.322 46.7921 184.943 45.292 184.037 45.189C183.164 45.0896 181.884 45.8264 180.885 45.8209C179.426 45.8131 178.181 45.5841 176.773 45.311C175.215 45.0083 174.702 45.0633 174.133 43.4033C173.538 41.6646 173.688 39.6448 173.693 37.8387C173.695 36.9563 173.874 35.8606 173.797 34.9943C173.682 33.689 173.424 33.6388 172.382 32.8087C171.08 31.7716 169.475 30.3993 171.07 28.5972C171.932 27.6235 173.702 28.3807 174.465 27.3345C175.243 26.2689 175.205 23.5919 175.442 22.3403C173.046 23.497 173.924 19.1726 173.924 18.1321C173.923 16.618 172.89 13.8951 174.378 12.6354C175.069 12.0506 175.582 12.5344 176.373 12.1983C177.275 11.8148 177.842 10.8088 178.802 10.4187C180.709 9.6433 182.656 10.5771 184.614 10.4229C186.86 10.2464 189.066 9.90533 191.324 10.2592C192.394 10.4264 192.844 10.8255 193.749 11.2729C194.62 11.7031 195.503 11.8208 196.448 12.0977C197.29 12.3442 198.028 12.4687 198.596 13.1887C199.046 13.7584 198.863 14.7165 199.316 15.2076C199.764 15.6914 200.649 15.6211 201.183 16.1957C201.695 16.7471 202.001 17.6585 202.268 18.3448C202.627 19.2691 202.67 19.6162 203.303 20.356C203.855 21.0016 204.65 21.5207 205.111 22.2571C206.196 23.993 206.224 26.5032 205.878 28.4559C205.76 29.1209 204.779 30.8397 204.932 31.4055C205.078 31.9441 205.999 31.8024 206.415 32.1432C206.776 32.4374 207.092 33.7488 207.376 33.8288C207.99 34.0016 208.747 32.8117 209.212 32.6332C210.019 32.3229 210.358 32.0048 210.805 33.1742C211.137 34.0418 210.675 35.2196 210.431 36.0476C210.122 37.1019 209.78 38.3715 208.96 39.1687C207.996 40.1058 207.224 39.5935 206.16 40.0983C204.566 40.8547 205.036 43.22 203.074 43.896C201.205 44.5401 199.145 42.5137 197.731 41.5821C198.024 43.8435 199.127 46.0227 198.598 48.3403C202.897 46.6861 207.15 44.3383 211.835 43.8211C214.225 43.5571 216.638 43.2448 218.894 44.2187C221.534 45.3587 223.151 47.8736 224.938 49.9631C228.297 53.8902 231.742 57.707 234.966 61.7606C237.922 65.479 240.415 69.7873 243.669 73.2691C246.969 76.7996 249.459 82.528 249.098 87.4169C249.065 87.8582 248.717 88.8608 248.772 89.3366C248.814 89.7012 249.151 90.1634 249.146 90.4574C249.128 91.4467 248.795 92.0164 247.835 92.565C246.17 93.5172 243.689 93.999 241.808 94.2352C239.308 94.5494 236.247 94.5832 233.746 94.2479C231.167 93.9014 228.9 92.4837 226.528 91.627C224.448 90.8751 222.358 90.4057 220.172 89.926C218.966 89.6614 217.631 88.9288 216.886 89.6378C216.202 90.2894 216.06 93.6329 215.9 94.5219C214.17 104.158 212.115 113.468 210.294 123.055C208.231 133.921 206.82 144.783 205.386 155.742C204.081 165.704 203.655 175.778 203.363 185.73C203.224 190.478 203.204 195.175 203.233 199.926C203.25 202.587 204.604 211.468 200.588 211.808C198.228 212.008 196.339 208.685 195.707 206.873C194.757 204.15 194.262 201.218 194.11 198.358C193.804 192.567 193.402 186.772 193.164 180.979C192.906 174.703 193.234 168.311 193.759 162.056C194.288 155.759 195.621 149.554 196.029 143.247C194.803 144.965 194.411 145.288 192.369 146.036C190.232 146.819 188.177 147.746 186.021 148.476C185.287 148.725 184.143 148.88 183.541 149.287C182.432 150.038 183.161 149.186 182.806 150.647C182.428 152.207 182.357 154.08 182.256 155.684C181.784 163.209 179.661 170.68 178.682 178.165C178.446 179.972 178.783 187.645 175.616 185.227C173.176 183.365 173.225 177.516 172.878 174.776C172.416 171.124 172.673 167.37 172.746 163.696C172.829 159.512 172.901 155.123 173.918 151.038C172.099 150.732 169.568 151.565 167.738 151.705C166.152 151.826 164.572 151.903 162.996 151.988C159.236 152.191 155.364 152.353 151.541 152.28C150.844 152.267 146.298 151.642 145.717 152.146C145.528 152.31 145.47 154.561 145.435 154.836C145.301 155.87 145.12 156.904 144.984 157.932C144.552 161.221 144.163 164.752 144.286 168.039Z" fill="#1E2124"/>
<path fill-rule="evenodd" clip-rule="evenodd" d="M211.809 199.29C214.678 200.391 217.723 200.791 220.617 201.794C223.203 202.691 225.606 203.896 228.153 204.808C228.302 203.647 228.381 201.683 227.945 200.589C227.327 199.04 225.701 199.003 224.1 198.451C220.204 197.108 216.106 196.825 212.238 195.257C212.9 196.509 212.604 198.167 211.809 199.29ZM261.338 195.24C255.141 195.419 249.219 196.835 243.112 197.711C240.14 198.137 237.166 198.517 234.191 198.915C233.046 199.067 230.96 198.887 230.128 199.86C229.438 200.667 230.194 203.418 229.888 204.6C231.14 204.69 233.364 203.541 234.724 203.351C236.841 203.056 238.93 202.641 241.069 202.51C244.456 202.3 247.784 202.122 251.166 201.751C254.605 201.375 257.932 200.675 261.399 200.42C263.083 200.295 263.761 200.606 263.86 198.859C263.9 198.176 263.995 197.033 263.8 196.359C264.112 195.531 263.835 195.129 262.97 195.153C262.421 195.092 261.877 195.121 261.338 195.24ZM249.353 189.665C251.029 189.511 252.712 189.29 254.391 189.197C254.732 189.178 256.46 189.28 256.742 188.969C257.142 188.529 256.697 186.92 256.623 186.422C256.374 184.729 256.099 183.744 254.218 183.74C252.631 183.736 250.987 184.066 249.406 184.218C242.229 184.909 235.087 185.201 227.989 186.513C228.421 188.32 228.911 190.184 228.394 192.032C231.8 192.204 235.538 191.561 238.866 190.901C242.268 190.226 245.877 189.891 249.353 189.665ZM237.993 172.653C235.428 172.664 232.718 173.773 230.187 173.526C230.149 173.988 230.959 173.605 231.183 174.037C231.661 174.038 231.827 174.191 231.681 174.497C231.69 174.706 231.582 174.828 231.355 174.863C231.244 174.873 231.132 174.882 231.021 174.892C230.531 174.907 230.451 175.231 230.781 175.865C230.639 176.65 230.851 177.646 230.882 178.434C235.43 177.826 239.848 177.194 244.427 176.923C246.589 176.795 248.75 176.795 250.909 176.621C253.285 176.428 255.878 176.841 258.201 176.404C259.443 176.17 259.313 176.186 259.222 174.601C259.167 173.638 259.187 172.494 258.389 171.791C257.055 170.618 254.017 171.296 252.422 171.337C247.618 171.462 242.733 171.9 237.993 172.653ZM240.618 195.297C247.488 194.685 254.306 193.342 261.215 193.342C260.726 192.863 259.662 192.74 259.054 192.478C258.361 192.18 257.707 191.546 257.029 191.285C255.67 190.762 254.287 191.489 252.89 191.802C249.522 192.56 246.066 192.585 242.693 193.329C239.205 194.096 235.672 194.804 232.12 195.194C230.429 195.38 228.614 195.757 226.943 195.318C226.808 195.223 226.671 195.128 226.536 195.033C226.39 194.422 225.984 194.259 225.319 194.543C224.474 194.385 223.399 194.589 222.549 194.61C222.514 194.944 225.656 195.99 226.255 196.249C227.698 196.873 228.676 197.33 230.218 197.063C233.689 196.46 237.103 195.742 240.618 195.297ZM216.451 175.573C216.719 176.601 217.847 176.133 218.817 176.247C220.12 176.398 221.416 176.84 222.678 177.172C224.969 177.777 227.261 178.373 229.543 179.012C229.453 178.107 229.657 176.048 229.17 175.245C228.659 174.403 226.236 174.034 225.108 173.777C222.264 173.131 219.227 173.499 216.338 173.635C216.389 174.28 216.427 174.926 216.451 175.573ZM243.766 182.003C246.464 181.779 249.166 181.604 251.871 181.511C254.965 181.404 252.716 180.919 252.651 179.066C248.585 179.703 244.483 179.829 240.43 180.373C237.072 180.825 233.071 182.003 229.646 181.37C228.031 181.072 226.381 180.957 224.663 180.788C223.041 180.629 221.511 179.887 219.91 179.703C218.112 179.496 216.275 180.488 214.487 180.75C213.729 180.862 213.552 181.366 213.194 180.47C212.823 179.541 213.887 178.781 214.305 178.226C214.794 177.576 214.591 178.63 214.863 177.617C214.939 177.333 214.732 176.619 214.695 176.313C214.599 175.539 214.351 174.7 214.313 173.928C214.277 173.218 214.271 172.136 215.055 171.722C215.533 171.469 215.873 171.837 216.29 171.766C219.546 171.21 223.376 171.164 226.678 171.701C230.258 172.283 233.339 170.743 236.867 170.119C241.006 169.386 245.189 169.276 249.364 168.967C252.934 168.702 259.456 167.33 260.816 171.808C261.201 173.077 261.762 176.569 260.726 177.649C259.366 179.066 256.218 178.614 254.46 178.982C254.723 179.717 255.506 180.216 255.235 181.091C257.699 181.205 258.134 183.491 258.521 185.624C258.92 187.831 258.141 188.708 260.289 189.858C263.283 191.46 266.454 193.077 266.396 196.892C266.366 198.811 266.148 201.703 264.142 202.699C262.18 203.672 258.985 203.507 256.823 203.861C252.636 204.546 248.434 205.349 244.221 205.76C239.735 206.198 235.175 206.557 230.682 206.753C228.234 206.86 226.119 207.223 223.754 206.414C221.43 205.619 219.156 205.038 216.757 204.447C214.389 203.865 207.141 203.08 209.253 199.104C209.591 198.468 210.746 197.962 210.933 197.36C211.234 196.39 210.217 195.632 210.26 194.755C210.337 193.151 212.181 192.949 213.454 192.949C211.272 191.609 214.194 190.023 214.176 188.885C214.146 186.881 211.607 185.58 211.463 183.9C211.114 179.811 224.323 184.068 226.356 184.953C224.791 187.231 217.531 185.26 215.369 184.914C215.664 185.675 215.946 186.359 216.032 187.138C216.101 187.773 215.854 188.498 216.08 189.137C216.437 190.147 216.424 189.954 217.688 190.229C218.622 190.433 219.546 190.668 220.478 190.884C221.909 191.216 224.16 192.105 225.578 192.057C226.821 192.014 226.575 192.393 226.803 191.037C226.926 190.308 226.717 189.533 226.592 188.819C226.331 187.322 225.949 185.906 227.28 184.832C228.548 183.808 231.224 183.32 232.78 182.959C236.235 182.158 240.222 181.962 243.766 182.003Z" fill="#1E2124"/>
<path fill-rule="evenodd" clip-rule="evenodd" d="M260.206 156.46C256.454 155.842 252.642 155.69 248.846 155.877C249.051 156.8 249.257 157.722 249.463 158.644C253.019 157.745 256.627 157.218 260.206 156.46ZM229.697 163.616C228.193 163.507 229.239 164.168 229.611 165.135C230.068 166.323 229.97 167.826 230.075 169.076C234.477 167.428 239.599 166.463 244.28 165.908C246.5 165.645 248.752 165.57 250.984 165.457C251.644 165.424 254.026 165.695 254.509 165.26C254.867 164.935 254.616 163.147 254.271 162.752C252.398 160.608 245.156 162.459 242.536 162.652C238.24 162.967 234.023 163.72 229.697 163.616ZM235.95 157.869C239.848 158.236 243.612 158.201 247.51 158.775C247.215 156.342 247.568 155.721 244.757 155.591C242.252 155.477 239.755 155.384 237.262 155.385C231.655 155.388 226.061 155.283 220.448 155.283V157.755C225.639 157.233 230.748 158.176 235.95 157.869ZM217.205 166.962C219.665 166.952 221.99 167.863 224.451 168.1C225.923 168.241 225.461 168.421 226.482 169.147C228.073 170.278 228.532 169.675 228.332 168.138C227.656 162.94 220.953 164.105 217.091 163.816C217.345 165.056 216.761 166.107 215.902 166.962H217.205ZM243.796 160.288C240.258 160.344 236.715 160.542 233.201 160.469C231.628 160.437 229.591 160.131 228.049 160.394C226.92 160.587 225.976 161.152 224.737 161.362C226.556 162.324 227.479 161.674 229.391 161.455C231.302 161.237 233.242 161.241 235.16 161.127C238.311 160.939 241.67 160.198 244.775 160.4C244.831 159.97 244.506 159.933 243.796 160.288ZM215.73 171.547C214.107 171.543 216.341 169.73 216.634 169.551C214.836 169.551 214.401 168.492 214.922 166.791C215.413 165.189 215.776 165.679 214.541 164.345C213.612 163.341 213.471 162.601 214.567 161.478C215.682 160.335 217.939 160.658 218.927 159.715C220.609 158.11 218.439 154.913 220.769 153.683C222.344 152.853 224.883 152.955 226.622 152.78C228.303 152.61 230.043 152.577 231.735 152.555C235.423 152.505 239.255 153.113 242.927 153.447C244.266 153.569 245.771 154.1 247.09 154.101C248.435 154.102 249.844 153.808 251.233 153.842C252.848 153.882 254.403 153.765 256.068 154.025C257.344 154.225 260.322 154.33 261.297 155.261C264.547 158.364 256.842 159.79 255.516 160.138C256.865 161.59 256.809 163.509 256.606 165.336C257.248 165.336 258.355 165.061 258.687 165.769C259.1 166.647 257.572 166.875 257.211 166.978C255.132 167.567 252.699 167.406 250.557 167.62C246.274 168.048 242.042 168.295 237.804 169.092C235.738 169.48 233.685 169.961 231.621 170.338C231.265 170.404 230.906 170.456 230.546 170.496C229.994 170.45 229.816 170.79 230.01 171.519C229.437 171.794 227.301 171.109 226.641 171.004C222.859 170.402 219.477 170.652 215.73 171.547Z" fill="#1E2124"/>
<path fill-rule="evenodd" clip-rule="evenodd" d="M292.087 207.605C289.648 209.49 287.381 211.269 284.74 212.906C286.607 212.849 292.816 209.925 292.087 207.605ZM291.134 204.533C289.803 203.41 288.481 203.525 286.833 203.185C285.316 202.871 283.842 202.331 282.328 201.972C281.139 201.69 279.963 201.309 278.779 201.042C277.107 200.666 276.943 201.08 275.405 201.94C269.952 204.992 263.85 207.091 258.106 209.568C259.793 211.026 263.586 211.089 265.694 211.554C267.233 211.893 268.697 212.357 270.171 212.894C271.543 213.394 273.754 214.545 275.202 214.583C276.423 214.616 277.417 213.435 278.468 212.799C279.852 211.962 281.229 211.14 282.624 210.324C285.575 208.598 288.334 206.482 291.134 204.533ZM266.491 216.895C265.862 216.3 263.967 216.326 263.178 216.145C261.623 215.788 260.091 215.417 258.515 215.149C255.959 214.715 251.92 214.521 251.642 211.263C251.411 208.556 254.741 207.914 256.69 206.997C259.619 205.617 262.608 204.344 265.612 203.127C268.428 201.987 271.285 201.023 274.153 200.037C274.712 199.845 275.166 199.872 275.623 199.432C275.983 199.085 275.872 198.412 276.267 198.049C277.17 197.219 278.343 197.656 279.43 197.869C281.896 198.352 284.458 198.987 286.809 199.883C289.253 200.814 291.439 201.009 292.026 203.73C293.276 203.154 294.216 203.07 294.066 204.762C294.023 205.259 293.655 205.8 293.567 206.312C293.437 207.068 293.664 207.865 293.536 208.623C293.068 211.378 289.285 213.419 286.941 214.501C284.05 215.835 280.32 217.806 277.093 218.066C273.653 218.344 269.905 217.017 266.491 216.895Z" fill="#1E2124"/>
<path fill-rule="evenodd" clip-rule="evenodd" d="M222.715 171.184C221.69 171.19 220.664 171.196 219.639 171.203C220.662 171.014 221.688 171.012 222.715 171.184Z" fill="#1E2124"/>
<path fill-rule="evenodd" clip-rule="evenodd" d="M162.729 64.6458C162.422 65.1491 162.115 65.6524 161.807 66.1562C161.912 65.5074 162.146 64.9512 162.729 64.6458Z" fill="#1E2124"/>
<path fill-rule="evenodd" clip-rule="evenodd" d="M222.715 185.622C223.331 185.628 223.947 185.632 224.561 185.638C223.943 185.633 223.329 185.628 222.715 185.622Z" fill="#1E2124"/>
<path fill-rule="evenodd" clip-rule="evenodd" d="M224.561 171.198C223.945 171.193 223.329 171.187 222.715 171.182C223.332 171.016 223.948 171.022 224.561 171.198Z" fill="#1E2124"/>
<path fill-rule="evenodd" clip-rule="evenodd" d="M249.042 85.4896C249.025 84.8851 249.007 84.2806 248.99 83.6771C249.008 84.2818 249.025 84.8854 249.042 85.4896Z" fill="#1E2124"/>
<path fill-rule="evenodd" clip-rule="evenodd" d="M144.445 176.719C144.433 176.215 144.42 175.711 144.407 175.208C144.42 175.712 144.433 176.215 144.445 176.719Z" fill="#1E2124"/>
<path fill-rule="evenodd" clip-rule="evenodd" d="M161.191 152.098C161.603 152.098 162.014 152.099 162.422 152.1C162.01 152.1 161.601 152.099 161.191 152.098Z" fill="#1E2124"/>
<path fill-rule="evenodd" clip-rule="evenodd" d="M216.255 43.5964C215.742 43.6329 215.229 43.6692 214.717 43.7057C215.23 43.6692 215.742 43.6329 216.255 43.5964Z" fill="#1E2124"/>
<path fill-rule="evenodd" clip-rule="evenodd" d="M203.204 191.219C203.189 190.815 203.173 190.412 203.158 190.01C203.173 190.414 203.189 190.817 203.204 191.219Z" fill="#1E2124"/>
<path fill-rule="evenodd" clip-rule="evenodd" d="M203.814 175.812C203.802 175.409 203.791 175.006 203.78 174.604C203.791 175.007 203.803 175.41 203.814 175.812Z" fill="#1E2124"/>
<path fill-rule="evenodd" clip-rule="evenodd" d="M193.315 182.76C193.33 183.164 193.345 183.567 193.359 183.969C193.345 183.565 193.33 183.163 193.315 182.76Z" fill="#1E2124"/>
<path fill-rule="evenodd" clip-rule="evenodd" d="M163.652 151.803C163.961 151.799 164.269 151.795 164.575 151.791C164.266 151.795 163.959 151.799 163.652 151.803Z" fill="#1E2124"/>
<path fill-rule="evenodd" clip-rule="evenodd" d="M252.861 167.525C253.17 167.512 253.478 167.499 253.784 167.486C253.475 167.499 253.168 167.512 252.861 167.525Z" fill="#1E2124"/>
<path fill-rule="evenodd" clip-rule="evenodd" d="M193.926 192.427C193.944 192.83 193.961 193.234 193.979 193.635C193.961 193.231 193.944 192.829 193.926 192.427Z" fill="#1E2124"/>
<path fill-rule="evenodd" clip-rule="evenodd" d="M226.898 190.312C226.878 190.716 226.857 191.119 226.837 191.521C226.857 191.117 226.878 190.715 226.898 190.312Z" fill="#1E2124"/>
<path fill-rule="evenodd" clip-rule="evenodd" d="M191.444 10.3152C191.009 10.2608 190.574 10.2069 190.139 10.1525C190.571 10.2504 191.043 9.88742 191.444 10.3152Z" fill="#1E2124"/>
<path fill-rule="evenodd" clip-rule="evenodd" d="M172.745 165.24C172.733 165.643 172.721 166.046 172.709 166.448C172.721 166.044 172.733 165.642 172.745 165.24Z" fill="#1E2124"/>
<path fill-rule="evenodd" clip-rule="evenodd" d="M146.303 202.094C146.282 201.691 146.261 201.288 146.24 200.885C146.261 201.288 146.282 201.691 146.303 202.094Z" fill="#1E2124"/>
<path fill-rule="evenodd" clip-rule="evenodd" d="M245.786 168.119C246.095 168.112 246.404 168.106 246.709 168.1C246.4 168.107 246.093 168.113 245.786 168.119Z" fill="#1E2124"/>
<path fill-rule="evenodd" clip-rule="evenodd" d="M141.347 94.8542C141.349 95.2578 141.352 95.6611 141.353 96.0625C141.351 95.6586 141.349 95.2566 141.347 94.8542Z" fill="#1E2124"/>
<path fill-rule="evenodd" clip-rule="evenodd" d="M134.893 185.479C134.891 185.882 134.89 186.286 134.888 186.687C134.889 186.284 134.891 185.881 134.893 185.479Z" fill="#1E2124"/>
<path fill-rule="evenodd" clip-rule="evenodd" d="M211.562 183.062C211.551 183.466 211.54 183.869 211.528 184.271C211.359 183.857 211.379 183.455 211.562 183.062Z" fill="#1E2124"/>
<path fill-rule="evenodd" clip-rule="evenodd" d="M203.494 181.25C203.49 180.847 203.487 180.444 203.484 180.042C203.487 180.446 203.49 180.848 203.494 181.25Z" fill="#1E2124"/>
<path fill-rule="evenodd" clip-rule="evenodd" d="M266.396 217.034C266.705 217.043 267.014 217.051 267.319 217.059C267.009 217.051 266.703 217.043 266.396 217.034Z" fill="#1E2124"/>
<path fill-rule="evenodd" clip-rule="evenodd" d="M255.322 178.687C255.528 178.684 255.734 178.681 255.938 178.677C255.73 178.681 255.527 178.684 255.322 178.687Z" fill="#1E2124"/>
<path fill-rule="evenodd" clip-rule="evenodd" d="M247.632 179.589C247.838 179.589 248.044 179.588 248.247 179.588C248.041 179.589 247.836 179.589 247.632 179.589Z" fill="#1E2124"/>
<path fill-rule="evenodd" clip-rule="evenodd" d="M127.833 181.552C127.821 181.25 127.808 180.947 127.797 180.646C127.809 180.949 127.821 181.251 127.833 181.552Z" fill="#1E2124"/>
<path fill-rule="evenodd" clip-rule="evenodd" d="M253.784 181.323C253.517 181.588 253.173 181.432 252.861 181.448C253.169 181.406 253.477 181.365 253.784 181.323Z" fill="#1E2124"/>
<path fill-rule="evenodd" clip-rule="evenodd" d="M217.178 171.658C216.772 171.846 216.361 171.872 215.947 171.671C216.358 171.667 216.768 171.662 217.178 171.658Z" fill="#1E2124"/>
<path fill-rule="evenodd" clip-rule="evenodd" d="M243.94 182.01C243.53 182.007 243.12 182.004 242.71 182C243.12 182.004 243.531 182.007 243.94 182.01Z" fill="#1E2124"/>
<path fill-rule="evenodd" clip-rule="evenodd" d="M132.748 170.073C132.741 170.376 132.733 170.678 132.725 170.979C132.732 170.676 132.74 170.374 132.748 170.073Z" fill="#1E2124"/>
<path fill-rule="evenodd" clip-rule="evenodd" d="M203.465 186.385C203.481 186.083 203.496 185.78 203.512 185.479C203.496 185.782 203.481 186.084 203.465 186.385Z" fill="#1E2124"/>
<path fill-rule="evenodd" clip-rule="evenodd" d="M245.786 168.965C245.376 168.999 244.966 169.033 244.556 169.066C244.966 169.033 245.376 168.999 245.786 168.965Z" fill="#1E2124"/>
<path fill-rule="evenodd" clip-rule="evenodd" d="M144.438 167.958C144.43 167.656 144.422 167.353 144.413 167.052C144.422 167.355 144.43 167.657 144.438 167.958Z" fill="#1E2124"/>
<path fill-rule="evenodd" clip-rule="evenodd" d="M195.834 144.698C195.81 145.001 195.786 145.303 195.762 145.604C195.786 145.301 195.81 145 195.834 144.698Z" fill="#1E2124"/>
<path fill-rule="evenodd" clip-rule="evenodd" d="M251.938 153.839C251.528 154.048 251.118 154.022 250.708 153.837C251.118 153.837 251.528 153.838 251.938 153.839Z" fill="#1E2124"/>
<path fill-rule="evenodd" clip-rule="evenodd" d="M203.208 195.75C203.19 195.447 203.172 195.145 203.154 194.844C203.172 195.147 203.19 195.448 203.208 195.75Z" fill="#1E2124"/>
<path fill-rule="evenodd" clip-rule="evenodd" d="M203.2 198.167C203.187 197.864 203.174 197.562 203.162 197.26C203.175 197.563 203.188 197.865 203.2 198.167Z" fill="#1E2124"/>
<path fill-rule="evenodd" clip-rule="evenodd" d="M145.035 158.292C145.04 157.989 145.043 157.686 145.048 157.385C145.043 157.689 145.039 157.99 145.035 158.292Z" fill="#1E2124"/>
<path fill-rule="evenodd" clip-rule="evenodd" d="M232.559 206.482C232.764 206.476 232.97 206.471 233.174 206.466C232.967 206.472 232.763 206.477 232.559 206.482Z" fill="#1E2124"/>
<path fill-rule="evenodd" clip-rule="evenodd" d="M133.377 209.042C133.36 208.739 133.344 208.437 133.327 208.135C133.344 208.438 133.36 208.74 133.377 209.042Z" fill="#1E2124"/>
<path fill-rule="evenodd" clip-rule="evenodd" d="M199.951 211.603C200.157 211.607 200.363 211.611 200.566 211.616C200.36 211.611 200.155 211.607 199.951 211.603Z" fill="#1E2124"/>
<path fill-rule="evenodd" clip-rule="evenodd" d="M200.079 185.781C200.097 184.875 200.113 183.968 200.13 183.062C200.113 183.969 200.096 184.875 200.079 185.781Z" fill="#1E2124"/>
<path fill-rule="evenodd" clip-rule="evenodd" d="M176.095 152.552C176.106 153.257 176.116 153.963 176.127 154.667C176.117 153.961 176.106 153.256 176.095 152.552Z" fill="#1E2124"/>
<path fill-rule="evenodd" clip-rule="evenodd" d="M123.047 196.798C122.533 196.804 122.019 196.81 121.509 196.817C122.024 196.811 122.535 196.804 123.047 196.798Z" fill="#1E2124"/>
<path fill-rule="evenodd" clip-rule="evenodd" d="M165.19 136.704C164.676 136.696 164.163 136.688 163.652 136.681C164.168 136.689 164.679 136.697 165.19 136.704Z" fill="#1E2124"/>
<path fill-rule="evenodd" clip-rule="evenodd" d="M151.963 148.475C152.476 148.475 152.989 148.474 153.501 148.473C152.988 148.473 152.476 148.474 151.963 148.475Z" fill="#1E2124"/>
<path fill-rule="evenodd" clip-rule="evenodd" d="M158.73 136.381C158.319 136.387 157.908 136.394 157.5 136.401C157.913 136.394 158.322 136.387 158.73 136.381Z" fill="#1E2124"/>
<path fill-rule="evenodd" clip-rule="evenodd" d="M125.508 196.811C125.097 196.808 124.685 196.806 124.277 196.804C124.69 196.806 125.099 196.808 125.508 196.811Z" fill="#1E2124"/>
<path fill-rule="evenodd" clip-rule="evenodd" d="M180.879 42.4953C181.391 42.4602 181.905 42.4252 182.417 42.3901C181.904 42.4252 181.391 42.4602 180.879 42.4953Z" fill="#1E2124"/>
<path fill-rule="evenodd" clip-rule="evenodd" d="M187.772 77.9375C187.791 77.4339 187.809 76.9303 187.828 76.4271C187.809 76.9309 187.791 77.4342 187.772 77.9375Z" fill="#1E2124"/>
<path fill-rule="evenodd" clip-rule="evenodd" d="M175.342 82.6195C175.033 82.6195 174.724 82.6198 174.419 82.6201C174.729 82.6201 175.035 82.6198 175.342 82.6195Z" fill="#1E2124"/>
<path fill-rule="evenodd" clip-rule="evenodd" d="M149.194 135.48C148.886 135.483 148.577 135.486 148.271 135.489C148.581 135.486 148.888 135.483 149.194 135.48Z" fill="#1E2124"/>
<path fill-rule="evenodd" clip-rule="evenodd" d="M142.119 147.821C142.53 147.853 142.94 147.886 143.35 147.919C142.939 147.886 142.53 147.853 142.119 147.821Z" fill="#1E2124"/>
<path fill-rule="evenodd" clip-rule="evenodd" d="M141.34 163.125C141.347 162.722 141.354 162.319 141.359 161.917C141.353 162.32 141.347 162.723 141.34 163.125Z" fill="#1E2124"/>
<path fill-rule="evenodd" clip-rule="evenodd" d="M176.572 147.023C176.982 146.983 177.393 146.944 177.803 146.904C177.392 146.944 176.982 146.983 176.572 147.023Z" fill="#1E2124"/>
<path fill-rule="evenodd" clip-rule="evenodd" d="M204.683 139.865C204.707 139.462 204.731 139.058 204.755 138.656C204.731 139.06 204.707 139.462 204.683 139.865Z" fill="#1E2124"/>
<path fill-rule="evenodd" clip-rule="evenodd" d="M168.267 136.999C167.958 136.996 167.649 136.993 167.344 136.991C167.654 136.993 167.96 136.996 168.267 136.999Z" fill="#1E2124"/>
<path fill-rule="evenodd" clip-rule="evenodd" d="M141.372 185.781C141.357 185.479 141.342 185.176 141.327 184.875C141.342 185.178 141.357 185.479 141.372 185.781Z" fill="#1E2124"/>
<path fill-rule="evenodd" clip-rule="evenodd" d="M175.862 170.375C176.535 172.012 176.157 170.853 176.175 171.231C175.602 171.306 175.497 171.021 175.862 170.375Z" fill="#1E2124"/>
<path fill-rule="evenodd" clip-rule="evenodd" d="M147.656 135.501C147.348 135.49 147.039 135.479 146.733 135.468C147.044 135.479 147.35 135.49 147.656 135.501Z" fill="#1E2124"/>
<path fill-rule="evenodd" clip-rule="evenodd" d="M210.535 104.823C210.554 104.42 210.574 104.017 210.593 103.615C210.573 104.018 210.554 104.421 210.535 104.823Z" fill="#1E2124"/>
<path fill-rule="evenodd" clip-rule="evenodd" d="M141.352 182.76C141.351 182.357 141.349 181.955 141.349 181.552C141.349 181.956 141.35 182.358 141.352 182.76Z" fill="#1E2124"/>
<path fill-rule="evenodd" clip-rule="evenodd" d="M141.318 173.698C141.339 173.395 141.36 173.093 141.381 172.792C141.36 173.094 141.339 173.396 141.318 173.698Z" fill="#1E2124"/>
<path fill-rule="evenodd" clip-rule="evenodd" d="M205.291 134.125C205.32 133.823 205.348 133.52 205.377 133.219C205.348 133.521 205.32 133.824 205.291 134.125Z" fill="#1E2124"/>
<path fill-rule="evenodd" clip-rule="evenodd" d="M137.31 174.604C137.337 174.907 137.364 175.21 137.392 175.51C137.364 175.208 137.337 174.906 137.31 174.604Z" fill="#1E2124"/>
<path fill-rule="evenodd" clip-rule="evenodd" d="M136.69 172.188C136.72 172.49 136.75 172.793 136.781 173.094C136.75 172.791 136.72 172.489 136.69 172.188Z" fill="#1E2124"/>
<path fill-rule="evenodd" clip-rule="evenodd" d="M198.225 130.802C198.248 130.5 198.27 130.198 198.293 129.896C198.27 130.199 198.247 130.5 198.225 130.802Z" fill="#1E2124"/>
<path fill-rule="evenodd" clip-rule="evenodd" d="M41.2207 171.782C41.6304 171.75 42.0408 171.718 42.4512 171.687C42.0399 171.718 41.6301 171.75 41.2207 171.782Z" fill="#1E2124"/>
<path fill-rule="evenodd" clip-rule="evenodd" d="M195.508 179.135C195.496 179.438 195.484 179.741 195.473 180.042C195.485 179.738 195.497 179.437 195.508 179.135Z" fill="#1E2124"/>
<path fill-rule="evenodd" clip-rule="evenodd" d="M200.378 180.042C200.401 179.74 200.424 179.437 200.446 179.135C200.424 179.438 200.401 179.74 200.378 180.042Z" fill="#1E2124"/>
<path fill-rule="evenodd" clip-rule="evenodd" d="M198.518 129.594C198.55 129.291 198.583 128.989 198.615 128.688C198.583 128.99 198.55 129.292 198.518 129.594Z" fill="#1E2124"/>
<path fill-rule="evenodd" clip-rule="evenodd" d="M43.6816 171.492C44.092 171.452 44.5024 171.412 44.9121 171.373C44.5024 171.412 44.0914 171.452 43.6816 171.492Z" fill="#1E2124"/>
<path fill-rule="evenodd" clip-rule="evenodd" d="M174.111 136.689C173.906 136.692 173.699 136.694 173.496 136.696C173.703 136.694 173.907 136.692 174.111 136.689Z" fill="#1E2124"/>
<path fill-rule="evenodd" clip-rule="evenodd" d="M141.352 170.979C141.351 170.676 141.349 170.374 141.349 170.073C141.349 170.376 141.351 170.677 141.352 170.979Z" fill="#1E2124"/>
<path fill-rule="evenodd" clip-rule="evenodd" d="M201.052 170.375C200.943 170.063 200.889 169.755 201.1 169.469C201.084 169.771 201.068 170.073 201.052 170.375Z" fill="#1E2124"/>
<path fill-rule="evenodd" clip-rule="evenodd" d="M195.811 164.635C195.803 164.938 195.794 165.24 195.785 165.542C195.794 165.239 195.803 164.937 195.811 164.635Z" fill="#1E2124"/>
<path fill-rule="evenodd" clip-rule="evenodd" d="M196.077 194.542C196.096 194.844 196.115 195.147 196.134 195.448C196.115 195.145 196.096 194.843 196.077 194.542Z" fill="#1E2124"/>
<path fill-rule="evenodd" clip-rule="evenodd" d="M218.716 84.67C219.024 84.7132 219.331 84.7561 219.639 84.799C219.331 84.7558 219.023 84.7126 218.716 84.67Z" fill="#1E2124"/>
<path fill-rule="evenodd" clip-rule="evenodd" d="M217.485 84.6981C217.898 84.7226 218.352 84.5278 218.716 84.8132L217.485 84.6981Z" fill="#1E2124"/>
<path fill-rule="evenodd" clip-rule="evenodd" d="M174.111 84.3797L175.342 84.4848C174.931 84.4498 174.522 84.4147 174.111 84.3797Z" fill="#1E2124"/>
<path fill-rule="evenodd" clip-rule="evenodd" d="M153.809 148.395C154.219 148.397 154.629 148.399 155.039 148.401C154.627 148.595 154.217 148.614 153.809 148.395Z" fill="#1E2124"/>
<path fill-rule="evenodd" clip-rule="evenodd" d="M142.615 199.073C142.592 198.77 142.569 198.468 142.545 198.167C142.569 198.47 142.592 198.771 142.615 199.073Z" fill="#1E2124"/>
<path fill-rule="evenodd" clip-rule="evenodd" d="M187.486 84.8854C187.49 84.5827 187.495 84.2806 187.499 83.9791C187.495 84.2821 187.49 84.5839 187.486 84.8854Z" fill="#1E2124"/>
<path fill-rule="evenodd" clip-rule="evenodd" d="M161.499 148.523C161.909 148.49 162.319 148.458 162.729 148.425C162.319 148.458 161.909 148.49 161.499 148.523Z" fill="#1E2124"/>
<path fill-rule="evenodd" clip-rule="evenodd" d="M196.403 201.792C196.41 202.094 196.417 202.396 196.424 202.698C196.417 202.395 196.41 202.093 196.403 201.792Z" fill="#1E2124"/>
<path fill-rule="evenodd" clip-rule="evenodd" d="M202.831 154.365C202.859 154.062 202.887 153.76 202.915 153.458C202.887 153.761 202.859 154.062 202.831 154.365Z" fill="#1E2124"/>
<path fill-rule="evenodd" clip-rule="evenodd" d="M216.989 73.7083C217.012 73.4056 217.036 73.1035 217.058 72.8021C217.036 73.1048 217.012 73.4065 216.989 73.7083Z" fill="#1E2124"/>
<path fill-rule="evenodd" clip-rule="evenodd" d="M187.791 47.7291C187.797 48.0315 187.803 48.3342 187.809 48.6354C187.803 48.3324 187.797 48.0306 187.791 47.7291Z" fill="#1E2124"/>
<path fill-rule="evenodd" clip-rule="evenodd" d="M176.88 42.0901C177.29 42.1237 177.701 42.1575 178.11 42.1907C177.7 42.1572 177.29 42.1237 176.88 42.0901Z" fill="#1E2124"/>
<path fill-rule="evenodd" clip-rule="evenodd" d="M115.356 213.783C115.767 213.744 116.177 213.704 116.587 213.665C116.177 213.704 115.767 213.744 115.356 213.783Z" fill="#1E2124"/>
<path fill-rule="evenodd" clip-rule="evenodd" d="M177.495 39.1201C177.289 39.1198 177.083 39.1195 176.88 39.1195C177.087 39.1201 177.291 39.1201 177.495 39.1201Z" fill="#1E2124"/>
<path fill-rule="evenodd" clip-rule="evenodd" d="M101.821 217.718C102.232 217.51 102.642 217.569 103.052 217.719C102.642 217.718 102.231 217.718 101.821 217.718Z" fill="#1E2124"/>
<path fill-rule="evenodd" clip-rule="evenodd" d="M261.475 194.981C261.063 194.99 260.652 194.999 260.244 195.009C260.656 195 261.065 194.99 261.475 194.981Z" fill="#1E2124"/>
<path fill-rule="evenodd" clip-rule="evenodd" d="M255.322 188.99C255.835 188.951 256.348 188.913 256.86 188.875C256.382 189.17 255.835 188.951 255.322 188.99Z" fill="#1E2124"/>
<path fill-rule="evenodd" clip-rule="evenodd" d="M249.478 189.612C249.99 189.575 250.503 189.539 251.016 189.503C250.503 189.539 249.99 189.575 249.478 189.612Z" fill="#1E2124"/>
<path fill-rule="evenodd" clip-rule="evenodd" d="M244.556 194.746C244.966 194.711 245.376 194.675 245.786 194.639C245.376 194.675 244.966 194.711 244.556 194.746Z" fill="#1E2124"/>
<path fill-rule="evenodd" clip-rule="evenodd" d="M246.709 184.419C246.4 184.421 246.092 184.423 245.786 184.425C246.096 184.422 246.403 184.421 246.709 184.419Z" fill="#1E2124"/>
<path fill-rule="evenodd" clip-rule="evenodd" d="M254.399 201.061C254.809 201.027 255.22 200.993 255.63 200.959C255.247 201.223 254.815 201.071 254.399 201.061Z" fill="#1E2124"/>
<path fill-rule="evenodd" clip-rule="evenodd" d="M241.172 172.037C240.863 172.037 240.554 172.036 240.249 172.036C240.559 172.036 240.865 172.037 241.172 172.037Z" fill="#1E2124"/>
<path fill-rule="evenodd" clip-rule="evenodd" d="M238.096 172.639C237.89 172.641 237.684 172.641 237.48 172.642C237.687 172.641 237.891 172.64 238.096 172.639Z" fill="#1E2124"/>
<path fill-rule="evenodd" clip-rule="evenodd" d="M230.713 173.481C230.61 173.729 230.066 173.697 230.099 173.442C230.303 173.455 230.508 173.468 230.713 173.481Z" fill="#1E2124"/>
<path fill-rule="evenodd" clip-rule="evenodd" d="M216.39 174.604C216.402 174.906 216.415 175.209 216.427 175.51C216.415 175.208 216.402 174.906 216.39 174.604Z" fill="#1E2124"/>
<path fill-rule="evenodd" clip-rule="evenodd" d="M258.398 176.206C258.706 176.2 259.014 176.196 259.321 176.19C259.017 176.404 258.709 176.374 258.398 176.206Z" fill="#1E2124"/>
<path fill-rule="evenodd" clip-rule="evenodd" d="M246.709 171.73C246.503 171.733 246.297 171.736 246.094 171.739C246.301 171.736 246.505 171.733 246.709 171.73Z" fill="#1E2124"/>
<path fill-rule="evenodd" clip-rule="evenodd" d="M238.711 190.822C239.121 190.784 239.532 190.747 239.941 190.709C239.531 190.747 239.121 190.784 238.711 190.822Z" fill="#1E2124"/>
<path fill-rule="evenodd" clip-rule="evenodd" d="M243.018 202.308C243.429 202.161 243.839 202.11 244.248 202.312C243.838 202.31 243.428 202.309 243.018 202.308Z" fill="#1E2124"/>
<path fill-rule="evenodd" clip-rule="evenodd" d="M242.365 160.668L241.787 160.472C242.505 160.463 243.223 160.455 243.94 160.446C243.942 160.446 242.448 160.675 242.365 160.668Z" fill="#1E2124"/>
<path fill-rule="evenodd" clip-rule="evenodd" d="M236.865 155.422C236.351 155.422 235.837 155.422 235.327 155.421C235.842 155.422 236.354 155.422 236.865 155.422Z" fill="#1E2124"/>
<path fill-rule="evenodd" clip-rule="evenodd" d="M217.485 166.97C217.997 166.768 218.51 166.808 219.023 166.964C218.511 166.966 217.998 166.968 217.485 166.97Z" fill="#1E2124"/>
<path fill-rule="evenodd" clip-rule="evenodd" d="M248.555 162.062C248.246 162.066 247.937 162.07 247.632 162.073C247.942 162.069 248.248 162.066 248.555 162.062Z" fill="#1E2124"/>
<path fill-rule="evenodd" clip-rule="evenodd" d="M242.095 158.091C242.608 158.124 243.121 158.157 243.633 158.19C243.12 158.157 242.607 158.124 242.095 158.091Z" fill="#1E2124"/>
<path fill-rule="evenodd" clip-rule="evenodd" d="M236.25 157.789C236.66 157.822 237.07 157.855 237.48 157.888C237.07 157.855 236.66 157.822 236.25 157.789Z" fill="#1E2124"/>
<path fill-rule="evenodd" clip-rule="evenodd" d="M230.405 163.584C230.199 163.58 229.994 163.576 229.79 163.572C229.997 163.576 230.201 163.58 230.405 163.584Z" fill="#1E2124"/>
<path fill-rule="evenodd" clip-rule="evenodd" d="M236.865 160.576C236.659 160.564 236.453 160.551 236.25 160.539C236.457 160.551 236.661 160.564 236.865 160.576Z" fill="#1E2124"/>
<path fill-rule="evenodd" clip-rule="evenodd" d="M232.866 160.565C232.66 160.56 232.454 160.554 232.251 160.549C232.458 160.555 232.662 160.56 232.866 160.565Z" fill="#1E2124"/>
<path fill-rule="evenodd" clip-rule="evenodd" d="M243.94 160.285C243.94 160.363 244.867 159.966 244.863 160.335L243.94 160.285Z" fill="#1E2124"/>
<path fill-rule="evenodd" clip-rule="evenodd" d="M240.557 155.421C240.351 155.422 240.145 155.422 239.941 155.422C240.148 155.422 240.352 155.422 240.557 155.421Z" fill="#1E2124"/>
<path fill-rule="evenodd" clip-rule="evenodd" d="M131.353 141.096C131.686 139.761 131.595 138.716 132.781 139.569C133.432 140.038 134.506 142.413 134.424 143.217C134.324 144.21 133.863 144.605 132.912 144.289C131.819 143.926 131.385 142.095 131.353 141.096Z" fill="#1E2124"/>
<path fill-rule="evenodd" clip-rule="evenodd" d="M191.286 132.991C194.041 132.991 192.838 135.87 190.542 135.935C189.487 135.965 187.969 135.76 188.311 134.373C188.494 133.633 191.171 132.635 191.286 132.991Z" fill="#1E2124"/>
<path fill-rule="evenodd" clip-rule="evenodd" d="M161.737 138.656C163.726 139.601 160.928 143.75 159.121 142.723C156.807 141.409 160.92 139.248 161.737 138.656Z" fill="#1E2124"/>
<path fill-rule="evenodd" clip-rule="evenodd" d="M156.898 142.583C157.549 143.281 160.483 145.644 158.866 146.595C156.877 147.764 155.364 143.905 156.898 142.583Z" fill="#1E2124"/>
<path fill-rule="evenodd" clip-rule="evenodd" d="M123.563 140.771C122.916 139.542 123.806 136.327 125.782 136.915C127.77 137.506 124.657 140.445 123.563 140.771Z" fill="#1E2124"/>
<path fill-rule="evenodd" clip-rule="evenodd" d="M167.448 141.479C168.738 140.969 168.492 142.478 168.687 142.964C168.908 143.517 170.044 144.864 169.759 145.452C169.337 146.326 168.326 145.769 167.777 145.202C166.815 144.208 166.884 142.614 167.448 141.479Z" fill="#1E2124"/>
<path fill-rule="evenodd" clip-rule="evenodd" d="M147.792 142.877C146.717 142.877 144.15 139.833 145.658 139.323C147.53 138.689 149.095 143.101 147.792 142.877Z" fill="#1E2124"/>
<path fill-rule="evenodd" clip-rule="evenodd" d="M184.942 138.052C185.927 138.29 187.23 141.028 185.746 141.345C184.103 141.697 183.81 138.809 184.942 138.052Z" fill="#1E2124"/>
<path fill-rule="evenodd" clip-rule="evenodd" d="M178.973 143.188C178.2 141.727 178.01 138.601 179.895 141.11C180.304 141.654 180.725 141.434 180.516 142.33C180.332 143.113 179.6 143.188 178.973 143.188Z" fill="#1E2124"/>
<path fill-rule="evenodd" clip-rule="evenodd" d="M138.3 135.635C139.087 136.799 138.855 140.446 137.21 138.289C136.511 137.372 136.992 135.679 138.3 135.635Z" fill="#1E2124"/>
<path fill-rule="evenodd" clip-rule="evenodd" d="M177.861 26.0088C179.388 25.6216 179.754 29.1569 178.863 29.5466C177.616 30.0919 177.773 26.6001 177.861 26.0088Z" fill="#1E2124"/>
<path fill-rule="evenodd" clip-rule="evenodd" d="M274.443 205.613C273.025 205.531 271.04 205.152 273.187 204.164C274.549 203.538 276.574 203.495 278.012 203.752C279.003 203.929 280.491 204.735 278.978 205.782C278.092 206.393 275.519 205.643 274.443 205.613Z" fill="#1E2124"/>
<path fill-rule="evenodd" clip-rule="evenodd" d="M272.854 208.135C272.444 208.09 272.035 208.044 271.626 208C271.955 207.414 272.909 207.291 272.854 208.135Z" fill="#1E2124"/>
<path fill-rule="evenodd" clip-rule="evenodd" d="M274.702 205.554C275.113 205.563 275.525 205.573 275.933 205.581C275.52 205.572 275.111 205.563 274.702 205.554Z" fill="#1E2124"/>
</svg>
