<svg width="239" height="138" viewBox="0 0 239 138" fill="none" xmlns="http://www.w3.org/2000/svg">
<path d="M168.905 20.5588C164.433 18.1198 158.878 19.929 156.322 24.4219L123.093 83.3312C122.721 84.0007 122.179 84.558 121.523 84.9458C120.867 85.3336 120.121 85.5381 119.361 85.5381C118.601 85.5381 117.855 85.3336 117.199 84.9458C116.543 84.558 116.002 84.0007 115.629 83.3312L82.7295 25.0116C81.9336 23.2109 80.6002 21.7071 78.9162 20.7112C76.8889 19.51 74.4839 19.1382 72.1942 19.6722L72.1029 19.6923C71.8688 19.7485 71.6347 19.8167 71.4006 19.8929L71.1625 19.9731C70.976 20.0373 70.7935 20.1135 70.6109 20.1937L70.2697 20.3422C70.1268 20.4104 69.9919 20.4826 69.8729 20.5588C69.7538 20.635 69.6506 20.6671 69.5395 20.7313L69.4205 20.8115C69.353 20.8516 69.2895 20.8998 69.2221 20.9439C67.7352 21.8993 66.5465 23.261 65.7936 24.8712L21.0294 104.203C19.7879 106.399 19.4507 109 20.0907 111.445C20.7307 113.889 22.2966 115.982 24.4499 117.269C25.5131 117.896 26.6891 118.303 27.9094 118.466C29.1297 118.629 30.37 118.546 31.5579 118.22C32.7459 117.894 33.8579 117.332 34.8292 116.568C35.8004 115.803 36.6115 114.851 37.2153 113.767L70.48 54.7972C70.853 54.1278 71.3953 53.5706 72.0515 53.1829C72.7076 52.7952 73.454 52.5909 74.214 52.5909C74.974 52.5909 75.7203 52.7952 76.3765 53.1829C77.0326 53.5706 77.575 54.1278 77.948 54.7972L111.225 113.795C112.023 115.218 113.175 116.407 114.567 117.243C115.959 118.08 117.542 118.535 119.161 118.564C119.415 118.564 119.669 118.564 119.923 118.564L120.224 118.54C120.379 118.54 120.526 118.508 120.681 118.484C120.835 118.46 121.101 118.416 121.311 118.372L121.427 118.348C122.698 118.061 123.896 117.508 124.943 116.724C125.99 115.941 126.863 114.944 127.506 113.799L172.623 33.7968C173.253 32.6842 173.656 31.4557 173.809 30.1833C173.963 28.911 173.864 27.6205 173.517 26.3875C173.171 25.1544 172.585 24.0037 171.793 23.0028C171.001 22.002 170.019 21.171 168.905 20.5588Z" fill="#1D1D1B" stroke="#1D1D1B" stroke-width="0.325" stroke-miterlimit="10"/>
<path d="M194.543 62.5869C191.93 58.0108 186.142 56.4425 181.617 59.0839C177.091 61.7254 175.541 67.5763 178.154 72.1524L201.905 113.741C204.519 118.317 210.306 119.885 214.832 117.244C219.357 114.602 220.907 108.751 218.294 104.175L194.543 62.5869Z" fill="#00B267"/>
</svg>
