<svg width="302" height="226" viewBox="0 0 302 226" fill="none" xmlns="http://www.w3.org/2000/svg">
<path fill-rule="evenodd" clip-rule="evenodd" d="M217.747 166.565C216.415 168.102 214.448 169.243 212.938 170.649C211.353 172.125 209.633 173.415 208.054 174.874C201.09 166.381 191.55 161.173 183.285 154.126C179.367 150.784 176.481 146.252 174.368 141.601C173.285 139.216 172.485 136.762 171.859 134.222C171.577 133.078 171.301 131.938 171.117 130.778C170.894 129.373 170.836 129.253 169.886 128.157C169.477 127.686 168.686 126.307 167.885 126.459C167.211 126.587 165.979 128.634 165.553 129.139C163.505 131.571 161.519 134.076 159.363 136.414C156.064 139.99 153.061 143.51 149.998 147.301C143.733 155.056 136.975 162.357 130.155 169.654C129.649 170.195 128.47 171.782 127.743 171.996C126.859 172.255 125.424 171.174 124.534 170.569C122.386 169.11 120.693 167.304 118.857 165.496C115.274 161.967 112.847 157.014 111.215 152.3C110.238 149.479 109.603 146.555 108.595 143.743C108.174 142.572 107.222 141.131 107.705 140.111C107.849 139.807 108.766 138.998 109.089 138.936C109.471 138.863 110.109 139.386 110.242 139.35C111.51 139.004 110.806 137.679 111.56 136.966C111.988 136.562 114.163 136.621 114.813 136.399C117.187 135.586 119.317 134.036 121.562 133.11C130.959 129.237 140.47 125.469 148.583 119.143C150.687 117.502 152.085 116.27 154.595 115.209C157.132 114.138 159.682 113.182 162.271 112.247C164.555 111.422 166.851 110.649 169.21 110.058C171.761 109.418 175.38 108.608 177.929 109.431C182.935 111.048 184.552 115.164 186.545 119.505C189.242 125.379 192.503 130.937 196.038 136.343C202.839 146.745 211.11 156.079 217.747 166.565Z" fill="#00B267"/>
<path fill-rule="evenodd" clip-rule="evenodd" d="M66.9945 74.6065C66.719 74.467 64.5684 75.3404 64.2074 75.474C62.7656 76.0078 61.4075 76.8947 60.049 77.6163C61.0901 78.8805 62.1315 80.145 63.1723 81.4095C64.1927 78.912 65.5042 76.8512 66.9945 74.6065ZM67.7043 90.1455C67.3501 90.1852 70.3406 97.3557 70.6898 98.1608C71.9606 101.089 73.2949 103.989 74.5825 106.91C75.83 109.74 77.4126 112.344 79.0069 114.989C80.3706 117.25 81.7733 120.76 83.8304 122.435C82.5315 116.685 82.7026 110.074 78.9771 105.247C75.1154 100.242 71.2974 95.3552 67.7043 90.1455ZM217.747 166.821C211.976 157.703 204.752 149.636 198.735 140.681C195.365 135.667 192.086 130.588 189.25 125.251C187.187 121.368 185.904 115.829 182.718 112.86C181.314 111.552 179.814 110.272 177.929 109.687C175.351 108.885 171.801 109.679 169.21 110.313C164.383 111.494 159.668 113.328 155.096 115.254C150.458 117.207 146.501 120.716 142.311 123.535C137.816 126.56 132.95 128.763 127.914 130.692C123.53 132.371 119.629 134.782 115.267 136.473C114.398 136.809 112.624 136.76 111.895 137.199C111.109 137.672 111.419 139.069 110.465 139.584C110.035 139.817 109.891 138.974 109.561 138.988C109.157 139.004 108.789 139.478 108.399 139.777C106.814 140.998 107.785 141.811 108.413 143.49C110.459 148.961 111.558 154.528 114.431 159.693C116.793 163.938 120.173 167.743 124.152 170.553C124.758 170.981 126.731 172.638 127.442 172.528C128.081 172.429 129.383 170.732 129.825 170.272C131.829 168.18 133.66 165.931 135.663 163.837C138.758 160.6 141.737 157.277 144.741 153.996C148.227 150.187 151.313 145.872 154.454 141.802C155.898 139.93 157.758 138.405 159.363 136.669C161.522 134.335 163.505 131.826 165.553 129.395C166.172 128.659 167.21 126.777 168.173 126.799C168.848 126.815 170.038 128.4 170.391 128.897C171.703 130.743 171.697 134.078 172.349 136.383C173.941 142.004 176.812 147.493 180.748 151.831C184.663 156.144 189.678 159.211 194.308 162.678C199.324 166.434 204.076 170.277 208.054 175.129C209.633 173.671 211.353 172.38 212.938 170.904C214.448 169.499 216.415 168.358 217.747 166.821ZM143.465 192.616C144.587 192.628 146.487 193.317 147.491 192.902C144.514 189.615 141.78 186.795 138.013 184.387C134.105 181.887 130.209 179.41 126.413 176.744C118.762 171.371 113.135 164.999 109.94 156.052C109.117 153.747 108.565 151.331 107.962 148.962C107.638 147.687 106.992 141.719 105.895 141.204C105.246 140.898 100.356 144.327 99.581 144.754C97.7696 145.754 95.9514 146.529 94.0786 147.311C90.0532 148.993 85.9034 150.276 81.6347 151.347C76.5169 152.631 73.0309 150.506 69.8605 146.493C66.2636 141.939 63.2746 136.802 59.9859 132.02C58.4904 129.845 57.2514 127.673 56.1469 125.274C55.4241 123.705 52.5571 119.47 53.5478 117.798C56.374 119.945 57.3909 124.213 59.3162 127.088C61.7157 130.671 64.4198 134.049 66.8317 137.628C68.8598 140.638 70.929 144.286 73.9254 146.449C76.5611 148.353 79.065 147.768 81.9016 146.912C85.3395 145.876 88.903 145.365 92.2722 144.079C95.9183 142.688 99.368 140.715 102.925 139.106C104.584 138.355 106.569 137.929 108.132 136.993C109.479 136.188 109.278 135.762 109.377 134.046C109.493 132.044 109.626 130.041 109.714 128.037C109.774 126.691 109.044 124.866 109.54 123.861C105.501 124.559 101.554 125.495 97.5434 126.323C95.3477 126.776 93.2304 127.336 91.0123 127.692C90.1668 127.828 89.011 127.824 88.2539 128.192C87.6499 128.019 87.342 128.129 87.3302 128.522C87.3013 128.735 87.2556 128.945 87.1928 129.152C85.9544 129.714 85.2342 128.509 84.1601 127.352C82.8347 125.925 81.8423 124.318 80.8699 122.641C78.6958 118.891 76.1898 115.364 74.1779 111.509C72.1273 107.579 70.4619 103.371 68.7233 99.2941C67.1284 95.5533 66.107 91.5076 64.3446 87.8555C63.558 86.2252 62.5612 84.8771 61.3971 83.5C60.4366 82.3635 58.9587 79.9119 57.5242 79.3899C57.145 79.2519 56.1517 79.4837 55.7208 79.4531C54.862 79.3919 54.0966 79.0774 53.2178 79.1462C51.3149 79.2948 49.2405 80.4954 47.7198 81.551C48.7025 82.425 51.1607 83.4873 49.395 85.0616C47.6815 86.5901 46.7351 83.8484 46.0813 82.6472C43.0023 85.1699 43.4473 88.6485 43.0916 92.213C42.9058 94.074 42.4171 95.9067 42.1019 97.7397C41.8748 99.0589 42.034 100.423 41.9692 101.77C41.8037 105.193 41.4589 108.469 41.4758 111.844C41.4934 115.451 41.7397 118.935 42.029 122.516C42.5159 128.545 43.6316 134.576 44.5884 140.557C45.1266 143.919 45.8633 147.185 46.5785 150.493C47.3901 154.247 48.8916 157.802 49.7336 161.547C50.5915 160.459 51.2368 160.453 52.6244 160.597C53.6917 160.708 54.4087 160.455 54.3461 161.933C54.3057 162.892 53.4581 163.624 52.5203 163.791C51.2972 164.01 50.8817 163.401 50.2514 162.476C50.104 164.227 51.2837 166.057 51.7502 167.766C52.1917 169.386 52.4843 170.974 53.2263 172.525C53.9504 174.037 54.5703 175.529 55.3029 177.027C55.6403 177.716 55.9558 178.416 56.2971 179.104C56.4696 179.452 56.6728 179.932 56.9302 180.225C57.5342 180.913 57.4381 180.58 58.145 180.971C59.6851 181.825 59.1068 181.612 59.1428 183.375C59.1778 185.114 60.0715 186.391 61.5045 187.368C64.5448 189.442 67.5436 190.019 71.0001 191.067C74.2206 192.044 77.6128 192.881 81.023 192.862C85.1997 192.839 89.3209 192.292 93.4976 192.237C98.1055 192.176 102.758 192.201 107.356 192.36C109.25 192.425 111.009 192.51 112.838 192.992C114.962 193.553 117.016 193.331 119.205 193.246C123.875 193.064 128.706 192.704 133.315 192.671C136.633 192.648 140.134 192.417 143.465 192.616ZM264.557 194.423C265.387 194.86 267.248 194.681 268.083 194.559C269.553 194.345 269.71 193.764 270.643 192.456C272.249 190.203 273.552 188.046 274.497 185.437C276.305 180.442 277.043 175.333 277.836 170.109C278.719 164.304 277.108 158.287 276.531 152.522C276.399 151.199 276.218 149.889 276.009 148.576C275.883 147.791 275.85 145.121 275.333 144.442C274.338 143.136 269.714 144.189 267.896 144.307C262.821 144.638 257.712 144.716 252.64 144.773C249.935 144.804 247.215 144.917 244.537 144.938C243.308 144.947 242.105 144.886 240.871 144.767C240.458 144.727 240.055 144.632 239.639 144.609C238.215 144.531 238.322 144.325 237.954 145.583C237.309 147.787 237.806 150.591 237.636 152.879C237.41 155.936 237.287 159.036 237.343 162.099C237.395 164.93 237.299 167.754 237.404 170.591C237.449 171.766 237.577 172.724 237.888 173.846C238.239 175.115 238.625 178.079 239.5 178.957C239.6 179.057 240.343 178.824 240.54 179.073C240.844 179.456 240.789 180.267 240.997 180.515C241.673 181.317 243.07 181.381 244.083 181.741C246.862 182.73 249.412 183.804 252.032 185.138C254.373 186.329 258.147 187.343 259.554 189.694C260.2 190.772 260.287 192.193 260.88 193.304C261.556 194.571 260.204 193.909 261.859 194.423C262.605 194.654 263.793 194.423 264.557 194.423ZM17.7794 180.098C17.5688 183.023 15.9175 185.809 15.3427 188.684C15.0738 190.031 14.6175 191.355 14.3014 192.693C13.9982 193.977 12.9028 195.498 13.0137 196.769C17.0565 195.332 21.1515 194.97 25.3769 194.583C29.3816 194.215 33.6123 194.069 37.5834 194.067C41.63 194.065 45.9568 193.671 50.1235 193.61C54.4809 193.546 58.9042 193.433 63.1985 192.982C60.953 191.323 58.1433 189.764 56.4852 187.456C54.6826 184.946 53.7466 181.801 52.1605 179.153C48.9777 173.838 46.9542 167.243 45.2859 161.272C41.9175 149.218 38.1535 137.387 37.2463 124.884C35.5198 125.766 34.1493 129.188 33.2849 130.893C32.1816 133.069 31.6038 135.428 30.8866 137.741C29.4096 142.505 28.3874 147.444 26.579 152.163C23.1225 161.183 20.9008 170.902 17.7794 180.098ZM237.234 109.845C237.982 115.236 239.55 120.697 239.61 126.153C239.623 127.353 239.419 128.686 239.67 129.87C239.938 131.133 240.809 132.25 241.312 133.451C242.11 135.358 244.131 139.265 242.182 140.88C242.142 139.347 240.736 137.401 240.028 136.06C238.961 134.041 237.558 132.194 236.401 130.225C233.98 126.102 231.266 122.068 228.144 118.434C225.104 114.894 221.601 111.753 218.377 108.383C217.408 107.37 209.638 97.6214 209.33 97.7577C211.74 107.031 215.837 115.1 221.444 122.865C224.193 126.671 227.492 129.176 230.838 132.401C233.625 135.086 238.877 137.958 237.914 142.358C242.27 141.94 246.598 141.272 250.994 141.272C250.271 135.721 249.717 130.258 248.427 124.797C246.961 118.597 245.969 112.212 244.729 105.957C243.464 99.5713 241.318 93.3892 239.983 87.0156C238.704 80.9124 237.606 74.8201 236.669 68.649C235.894 72.0684 236.18 75.8242 235.905 79.3131C235.624 82.8776 235.651 86.3764 235.745 89.9618C235.918 96.6215 236.629 103.201 237.234 109.845ZM256.111 78.0936C256.136 75.243 256.689 72.431 256.86 69.5871C256.912 68.7146 257.783 62.7618 256.971 62.451C256.303 63.9042 256.147 65.7637 255.541 67.2883C254.935 68.8114 254.124 70.2625 253.542 71.7962C252.282 75.1188 251.848 78.8784 251.712 82.4109C251.405 90.4009 251.246 98.373 251.785 106.363C252.015 109.788 252.192 113.218 252.129 116.65C252.06 120.426 251.48 123.703 252.184 127.448C252.88 131.156 253.318 134.849 253.55 138.612C253.713 141.253 253.779 141.066 256.304 140.88C258.127 140.746 259.967 140.889 261.793 140.806C260.939 130.514 260.8 120.2 259.437 109.947C258.741 104.716 258.722 99.41 257.858 94.1988C257.429 91.6101 256.708 89.0734 256.294 86.4818C255.85 83.6992 256.069 80.8977 256.111 78.0936ZM71.4581 71.6164C76.3193 72.0366 81.4902 73.4868 86.4729 72.5292C85.6515 72.1973 83.5021 71.7394 84.4695 70.4293C85.453 69.0972 87.1105 70.7869 88.0914 70.6124C88.6963 70.5047 90.0329 67.9819 90.4057 67.4595C91.2518 66.2724 91.3538 66.0656 92.8753 65.7613C94.3493 65.467 94.6835 65.7857 94.8702 64.3235C95.0846 62.642 94.5015 60.7516 94.5593 59.0322C94.6835 55.3306 95.8803 52.0845 96.9942 48.6018C92.2616 49.6291 87.634 50.8474 82.7949 51.5095C80.7263 51.7926 77.5081 52.4455 75.6289 51.0425C75.1402 50.6776 75.2184 50.185 74.8184 49.7621C74.1478 49.0526 72.9038 48.3187 71.9527 48.1165C66.0994 46.8732 65.5284 55.199 68.4617 58.3145C69.1963 59.0952 70.2185 59.4807 70.9709 60.1961C71.9751 61.1501 72.0574 62.155 72.204 63.6114C72.4788 66.3422 72.1055 69.0836 70.9379 71.5817L71.4581 71.6164ZM142.489 110.922C144.217 111.249 146.02 111.175 147.752 111.454C148.368 111.553 150.213 111.899 150.754 111.54C151.581 110.992 151.874 108.981 152.265 108.045C152.952 106.398 153.925 104.961 154.58 103.284C157.258 96.434 159.755 89.5566 162.994 82.9405C161.753 82.6186 160.799 82.6059 159.548 82.4397C158.245 82.2664 157.064 81.4974 155.82 81.167C154.638 80.853 153.4 80.933 152.23 80.5678C151.585 80.3668 151.031 79.9198 150.395 79.7636C149.381 79.5149 148.199 79.3696 147.596 80.0334C146.978 80.7144 146.761 82.5815 146.425 83.4611C145.53 85.8044 144.489 88.0659 143.739 90.463C143.062 92.625 142.42 94.764 141.824 96.9458C141.194 99.249 139.954 101.147 139.198 103.348C138.624 105.022 138.081 106.734 137.995 108.52C137.912 110.262 137.658 110.373 139.404 110.652C140.285 110.792 141.659 111.315 142.489 110.922ZM256.178 192.469C256.628 192.679 257.052 192.651 257.451 192.386C253.549 190.741 249.753 188.461 245.683 187.333C241.865 186.275 238.153 185.01 234.475 183.707C231.486 182.649 228.798 181.824 226.096 179.961C224.456 178.83 222.998 177.558 221.871 175.905C220.616 174.065 220.337 171.446 218.978 169.788C217.144 171.799 214.989 173.321 212.818 174.918C212.067 175.471 210.266 176.676 210.009 177.531C209.685 178.61 210.554 179.642 210.983 180.734C212.083 183.531 212.62 186.326 213.217 189.234C213.456 190.399 213.972 192.151 214.932 192.639C215.805 193.083 218.335 192.76 219.422 192.678C225.094 192.249 230.664 191.81 236.37 192.201C242.826 192.642 249.738 192.948 256.178 192.469ZM267.506 140.645C268.536 140.648 269.543 140.52 270.57 140.52C269.977 137.758 271.363 134.184 271.855 131.428C272.404 128.344 272.823 125.155 273.189 122.047C273.962 115.5 274.312 109.032 274.322 102.437C274.332 96.0547 275.496 90.2229 277.127 84.0879C278.878 77.4992 281.746 71.574 284.117 65.2198C281.516 66.5917 280.076 69.8019 278.71 72.2562C276.982 75.3592 275.831 78.7951 275.126 82.2787C273.765 88.999 272.272 95.7396 270.701 102.449C269.066 109.434 268.105 116.484 266.231 123.413C265.318 126.792 264.075 130.948 264.006 134.433C263.978 135.874 263.542 138.893 264.197 140.145C264.809 141.316 266.163 140.764 267.506 140.645ZM111.919 131.977C111.865 132.695 111.814 133.377 111.686 134.086C113.114 134.072 114.922 132.594 116.146 131.93C117.638 131.122 119.132 130.23 120.591 129.418C123.407 127.849 126.605 126.815 129.612 125.526C133.067 124.045 136.242 122.256 139.546 120.474C140.7 119.851 148.994 116.264 148.854 115.284C147.034 115.223 145.213 115.163 143.392 115.103C141.831 115.051 139.413 115.403 137.918 114.921C137.099 114.657 136.18 113.686 135.871 112.925C135.565 112.173 136.252 108.71 135.853 108.49C133.815 110.566 132.533 113.325 130.711 115.565C128.698 118.04 126.096 119.486 123.229 120.801C120.062 122.254 116.785 123.379 113.548 124.624C112.184 125.149 112.211 125.449 112.092 126.943C111.959 128.611 111.973 130.304 111.919 131.977ZM276.47 194.763C279.903 195.13 283.421 194.921 286.88 195.208C288.139 195.312 289.884 195.467 288.617 197.153C287.82 198.214 285.265 197.874 284.107 197.947C280.995 198.145 277.701 198.039 274.583 197.993C273.927 197.983 273.201 197.789 272.538 197.832C271.772 197.883 270.854 198.432 270.156 198.428C269.726 198.426 269.572 197.973 269.201 197.931C268.392 197.841 267.584 197.774 266.769 197.775C254.444 197.777 242.289 197.53 229.995 197.517C224.116 197.511 218.143 197.41 212.267 197.134C211.033 197.076 204.005 197.328 204.2 195.111C204.3 193.969 206.594 193.808 207.431 193.687C208.051 193.597 208.694 193.611 209.316 193.578C210.967 193.49 211.69 193.886 211.342 192.084C210.021 185.247 207.654 179.597 202.596 174.682C198.461 170.662 193.481 167.016 188.797 163.66C183.11 159.584 178.496 155.298 175.12 149.061C173.148 145.42 171.497 141.696 170.484 137.669C170.12 136.221 170.111 134.573 169.664 133.176C169.321 132.101 168.538 131.349 168.076 130.235C162.418 139.665 154.918 147.555 148.042 156.057C144.756 160.12 141.008 163.978 137.082 167.512C135.917 168.56 134.83 169.655 133.743 170.784C132.833 171.729 131.389 172.568 130.621 173.616C129.885 174.621 130.066 174.573 131.187 175.372C132.67 176.427 134.303 177.303 135.809 178.332C138.215 179.977 140.842 181.366 142.994 183.345C145.321 185.486 147.354 187.966 149.389 190.379C150.744 191.988 152.523 194.052 152.864 196.086C152.977 196.759 153.406 198.424 152.84 198.916C152.356 199.338 152.405 199.178 151.805 198.921C151.018 198.584 150.786 197.812 149.825 197.444C147.366 196.502 144.39 196.825 141.831 196.814C139.271 196.802 136.69 197.089 134.131 197.079C128.288 197.055 122.569 197.527 116.728 197.78C110.524 198.049 104.244 197.404 98.0607 197.495C93.4793 197.563 88.7759 197.221 84.0681 197.475C81.6465 197.606 79.2682 197.303 76.9071 197.269C73.8157 197.225 70.6409 197.645 67.523 197.704C62.4055 197.803 57.3505 197.802 52.2018 197.925C41.1269 198.19 30.1118 198.463 19.0304 198.638C17.5523 198.661 15.934 198.611 14.4733 198.777C12.9229 198.954 13.7233 199.282 12.6595 199.839C9.68141 201.398 10.3692 195.62 10.4405 194.483C10.8233 188.393 12.3729 182.42 14.235 176.638C16.0016 171.154 17.4358 165.415 18.9319 159.813C20.5696 153.681 22.7034 147.8 24.641 141.729C26.6264 135.507 28.2429 129.043 31.8489 123.528C32.6703 122.272 33.5191 120.921 34.8403 120.129C36.3214 119.241 36.3851 119.76 36.3839 118.135C36.383 116.605 36.4774 114.561 36.1155 113.1C35.7885 111.781 35.8389 112.563 35.1025 111.616C34.5032 110.845 33.8762 110.318 33.4462 109.383C30.8049 112.055 24.7587 110.645 22.2067 108.72C19.0832 106.365 16.7041 102.392 15.8323 98.6072C15.1322 95.5683 15.9913 89.7756 19.3622 88.3142C21.0055 87.6018 27.0414 87.0633 27.2829 84.7415C27.4074 83.5429 25.2831 81.8576 24.7929 80.8271C23.8845 78.9179 23.0122 76.3783 22.7597 74.2854C22.2666 70.2004 24.1252 65.6324 27.0859 62.873C32.5172 57.811 42.0736 55.2132 49.06 58.4248C47.5836 52.7975 46.6923 47.9429 47.4358 42.0893C48.0764 37.0464 51.0584 34.2249 55.1616 31.713C62.1636 27.426 71.6855 25.7339 79.6917 26.9804C81.5111 27.2638 83.257 27.8715 84.9416 28.355C87.3889 29.0574 90.3186 28.8235 92.6294 29.9647C94.3048 30.7919 95.5771 32.4398 97.0485 33.5401C98.7664 34.8246 100.194 36.7418 101.387 38.5148C103.94 42.3062 102.942 49.3428 100.806 53.1486C100.348 53.9649 99.7821 54.652 99.0242 55.209C98.2349 55.7888 97.032 55.9691 96.6253 56.721C95.5836 58.647 96.5884 62.8165 96.7273 64.8982C96.8892 67.3153 95.6644 69.131 92.9175 69.3237C91.3285 69.4356 91.2777 68.5157 90.5168 70.4084C90.0237 71.6352 89.5757 72.9718 88.8641 74.0965C87.3969 76.4145 84.7095 76.1882 82.2617 76.1255C79.4281 76.0525 76.6369 75.6058 73.8018 75.3239C74.5507 77.7178 76.6004 79.5758 77.8803 81.7084C79.6109 84.5929 80.6526 86.9838 80.9339 90.3444C81.1498 92.9263 80.6838 94.9653 78.9131 96.8869C78.1803 97.6823 77.5305 97.7215 77.7125 98.639C77.8234 99.1987 78.7934 100.122 79.1367 100.569C80.0447 101.751 81.0991 102.835 81.8983 104.097C84.9738 108.953 85.8821 116.356 85.8898 122.009C85.8901 122.268 86.0287 122.82 85.914 123.088C85.8291 123.286 85.1838 123.913 85.1743 123.967C85.0481 124.693 85.7583 125.939 86.8728 126.063C88.0433 126.192 90.1871 125.217 91.276 124.897C93.0184 124.384 94.7944 124.006 96.533 123.48C99.3409 122.629 102.136 121.951 104.99 121.285C106.28 120.984 107.577 120.734 108.872 120.452C110.346 120.132 111.03 119.513 111.791 121.01C112.444 122.294 112.038 122.527 113.619 121.88C115.189 121.237 116.723 120.44 118.256 119.714C120.959 118.435 124.178 117.294 126.51 115.405C130.4 112.254 131.84 107.235 135.563 103.891C136.6 102.96 137.218 102.944 137.874 101.654C138.575 100.274 138.937 98.5033 139.306 97.0185C139.952 94.4183 140.412 91.809 140.998 89.2112C141.728 85.9748 143.305 83.0438 144.456 79.9569C144.905 78.7542 145.137 77.2255 145.861 76.1446C146.052 75.858 146.419 75.6965 146.568 75.4593C147.083 74.645 147.078 74.4214 147.211 73.4418C147.835 68.8644 150.573 71.2724 153.565 72.3221C154.826 72.7644 160.813 75.6326 158.527 77.5401C161.252 78.329 165.616 77.9003 165.58 81.797C165.561 83.7936 164.364 85.9295 163.722 87.7984C163.151 89.4578 162.6 91.1236 162.02 92.7804C160.75 96.4096 159.21 99.9303 157.971 103.571C157.406 105.23 156.94 106.928 156.154 108.494C155.461 109.875 153.782 111.397 153.505 112.908C160.767 109.817 167.485 105.347 175.613 105.632C179.172 105.757 182.402 107.249 184.368 110.372C186.832 114.286 188.454 118.668 190.863 122.618C199.625 136.987 210.076 150.04 219.695 163.815C220.434 164.873 221.384 165.874 221.64 167.182C221.807 168.035 221.483 168.889 221.684 169.709C222.1 171.413 224.202 173.54 225.628 174.519C228.361 176.396 232.803 179.043 236.213 178.809C234.073 173.677 234.102 168.054 234.201 162.579C234.296 157.379 234.859 152.221 235.528 147.075C235.679 145.91 235.811 144.831 236.146 143.702C236.531 142.407 237.059 142.53 235.907 141.366C234.132 139.574 232.022 138.1 230.233 136.285C226.365 132.361 222.4 129.286 219.355 124.6C216.459 120.143 213.405 115.558 211.261 110.677C209.054 105.653 208.172 100.288 207.077 94.9671C206.633 92.808 205.012 90.3977 205.337 88.143C205.749 85.2935 207.073 87.3684 207.612 88.9019C209.257 93.5828 213.109 97.7724 216.3 101.537C219.747 105.604 223.963 109.006 227.561 112.955C231.479 117.255 234.163 122.198 237.647 126.788C237.647 121.091 235.697 115.29 234.9 109.654C234.198 104.694 233.978 99.7175 233.534 94.7355C232.527 83.4184 233.398 71.768 234.811 60.5318C235.483 55.1955 235.102 49.9849 235.122 44.6303C235.129 42.9262 234.422 38.9985 235.323 37.4863C237.048 34.5898 238.055 40.9234 238.142 41.8677C238.664 47.493 237.728 53.0556 238.206 58.6567C238.706 64.5059 239.79 70.191 240.713 75.9725C241.712 82.2325 243.339 88.3513 244.897 94.4913C246.533 100.938 247.908 107.519 249.727 113.914C250.217 111.904 249.529 109.434 249.393 107.387C249.199 104.457 248.82 101.527 248.787 98.5896C248.735 93.908 248.698 89.1396 248.964 84.4799C249.225 79.8869 249.146 75.0741 250.558 70.6491C251.228 68.5489 252.211 66.4999 253.172 64.5215C254.358 62.082 254.778 59.7167 255.434 57.1221C255.997 54.9001 256.821 52.7366 257.195 50.4701C257.428 49.0606 258.079 44.8996 259.696 48.0521C260.635 49.8819 260.229 52.5944 260.256 54.5602C260.289 57.0803 259.903 59.5307 259.843 62.0402C259.728 66.964 259.645 71.8818 259.277 76.7973C258.891 81.9544 259.228 86.5763 260.211 91.6577C261.288 97.22 261.602 102.794 262.16 108.425C262.448 111.332 262.933 114.223 263.167 117.134C263.291 118.676 262.655 123.096 263.762 124.194C263.87 121.524 264.636 118.852 265.218 116.25C265.906 113.167 266.184 109.927 266.692 106.8C267.514 101.734 269.109 96.8969 270.164 91.8881C272.339 81.5631 274.146 68.2929 283.262 61.5347C284.454 60.6504 285.765 59.9977 287.055 59.27C287.784 58.858 288.869 57.7922 289.704 57.6062C290.616 57.4031 290.996 57.5609 291.365 58.6161C291.881 60.0872 290.938 60.7743 290.059 61.8428C287.014 65.54 285.714 70.2795 283.834 74.6156C279.529 84.5446 277.624 95.0171 277.603 105.75C277.591 111.368 277.203 116.787 276.602 122.372C275.956 128.382 275.105 134.738 273.275 140.519C275.111 140.93 277.102 140.318 277.6 142.447C277.722 142.969 277.501 143.588 277.637 144.268C277.768 144.93 278.085 145.588 278.272 146.238C278.659 147.584 278.863 148.912 279.052 150.294C279.779 155.634 281.028 160.714 281.161 166.129C281.284 171.134 280.302 176.205 279.397 181.114C278.485 186.058 275.871 190.273 273.813 194.745C274.698 194.745 275.584 194.754 276.47 194.763Z" fill="#1E2124"/>
<path fill-rule="evenodd" clip-rule="evenodd" d="M159.976 183.397C158.999 183.672 154.287 184.192 154.288 185.668C154.288 186.552 158.995 186.535 159.828 186.631C159.877 185.553 159.926 184.475 159.976 183.397ZM170.378 193.578C173.093 194.094 176.78 193.369 178.516 190.98C179.327 189.864 179.712 188.167 179.976 186.834C180.229 185.565 181.007 182.397 180.477 181.207C179.827 179.746 173.587 181.273 171.77 181.441C168.6 181.733 165.322 181.767 162.15 181.561C162.15 184.829 161.982 188.014 163.909 190.827C165.299 192.857 167.909 193.336 170.378 193.578ZM169.832 197.615C166.881 196.538 163.783 197.238 161.862 194.077C161.374 193.275 160.964 192.413 160.669 191.522C160.525 191.132 160.413 190.733 160.333 190.323C160.483 189.442 160.16 189.194 159.363 189.578C157.799 189.274 156.084 190.346 154.436 190.03C150.441 189.264 151.167 183.553 153.848 181.576C154.378 181.186 154.907 181.077 155.513 180.884C156.85 180.459 157.573 180.934 158.796 180.813C159.784 180.716 160.055 179.682 161.117 179.227C161.812 178.929 162.777 178.952 163.508 178.922C167.332 178.765 171.169 178.766 175.018 178.518C176.813 178.402 178.752 178.685 180.51 178.379C181.334 178.236 181.215 177.689 181.995 178.169C182.802 178.665 182.454 180.502 182.413 181.235C182.177 185.47 181.925 190.012 179.651 193.715C177.57 197.103 173.477 197.45 169.832 197.615Z" fill="#1E2124"/>
<path fill-rule="evenodd" clip-rule="evenodd" d="M13.999 198.782C14.9484 198.772 15.8974 198.762 16.8435 198.752C15.893 198.763 14.946 198.772 13.999 198.782Z" fill="#1E2124"/>
<path fill-rule="evenodd" clip-rule="evenodd" d="M277.608 108.477C277.607 107.567 277.605 106.658 277.603 105.749C277.604 106.66 277.606 107.569 277.608 108.477Z" fill="#1E2124"/>
<path fill-rule="evenodd" clip-rule="evenodd" d="M36.1185 112.214C36.1155 113.1 36.1126 113.987 36.1096 114.871C36.1123 113.984 36.1152 113.099 36.1185 112.214Z" fill="#1E2124"/>
<path fill-rule="evenodd" clip-rule="evenodd" d="M115.03 197.777C115.786 197.779 116.541 197.779 117.293 197.782C116.536 197.781 115.784 197.779 115.03 197.777Z" fill="#1E2124"/>
<path fill-rule="evenodd" clip-rule="evenodd" d="M69.171 197.597C69.9263 197.599 70.6813 197.601 71.433 197.604C70.6765 197.602 69.9239 197.599 69.171 197.597Z" fill="#1E2124"/>
<path fill-rule="evenodd" clip-rule="evenodd" d="M234.301 160.786C234.268 161.384 234.234 161.982 234.201 162.579C234.234 161.98 234.268 161.383 234.301 160.786Z" fill="#1E2124"/>
<path fill-rule="evenodd" clip-rule="evenodd" d="M276.47 194.763C275.887 194.756 275.303 194.751 274.719 194.744C275.306 194.5 275.889 194.511 276.47 194.763Z" fill="#1E2124"/>
<path fill-rule="evenodd" clip-rule="evenodd" d="M224.651 197.412C225.07 197.405 225.488 197.399 225.903 197.392C225.483 197.398 225.067 197.405 224.651 197.412Z" fill="#1E2124"/>
<path fill-rule="evenodd" clip-rule="evenodd" d="M277.381 115.86C277.391 115.407 277.402 114.955 277.412 114.505C277.402 114.957 277.391 115.409 277.381 115.86Z" fill="#1E2124"/>
<path fill-rule="evenodd" clip-rule="evenodd" d="M238.206 58.6567C238.172 58.1903 238.137 57.7242 238.103 57.2589C238.137 57.7256 238.172 58.1912 238.206 58.6567Z" fill="#1E2124"/>
<path fill-rule="evenodd" clip-rule="evenodd" d="M277.588 110.259C277.593 109.791 277.599 109.324 277.605 108.858C277.599 109.326 277.593 109.792 277.588 110.259Z" fill="#1E2124"/>
<path fill-rule="evenodd" clip-rule="evenodd" d="M145.851 196.832C146.223 196.837 146.596 196.843 146.965 196.847C146.592 196.842 146.221 196.837 145.851 196.832Z" fill="#1E2124"/>
<path fill-rule="evenodd" clip-rule="evenodd" d="M241.791 197.594C242.155 197.601 242.519 197.608 242.88 197.616C242.514 197.609 242.153 197.601 241.791 197.594Z" fill="#1E2124"/>
<path fill-rule="evenodd" clip-rule="evenodd" d="M281.12 164.721C281.093 164.311 281.067 163.901 281.041 163.492C281.068 163.902 281.094 164.312 281.12 164.721Z" fill="#1E2124"/>
<path fill-rule="evenodd" clip-rule="evenodd" d="M274.583 197.993C274.88 197.991 275.176 197.989 275.469 197.989C275.172 197.991 274.877 197.992 274.583 197.993Z" fill="#1E2124"/>
<path fill-rule="evenodd" clip-rule="evenodd" d="M234.203 197.613C234.497 197.606 234.79 197.598 235.081 197.592C234.786 197.599 234.494 197.606 234.203 197.613Z" fill="#1E2124"/>
<path fill-rule="evenodd" clip-rule="evenodd" d="M168.233 197.389C168.556 197.387 168.879 197.386 169.199 197.383C168.875 197.385 168.554 197.387 168.233 197.389Z" fill="#1E2124"/>
<path fill-rule="evenodd" clip-rule="evenodd" d="M93.7327 197.388C94.0397 197.39 94.347 197.392 94.6508 197.395C94.3426 197.393 94.0376 197.391 93.7327 197.388Z" fill="#1E2124"/>
<path fill-rule="evenodd" clip-rule="evenodd" d="M75.6094 197.437C75.9226 197.42 76.2353 197.402 76.5455 197.385C76.2314 197.403 75.9206 197.42 75.6094 197.437Z" fill="#1E2124"/>
<path fill-rule="evenodd" clip-rule="evenodd" d="M162.377 78.3702C161.911 78.3302 161.445 78.2902 160.979 78.2499C161.446 78.2825 161.939 78.0071 162.377 78.3702Z" fill="#1E2124"/>
<path fill-rule="evenodd" clip-rule="evenodd" d="M281.164 194.939C280.704 194.893 280.245 194.847 279.785 194.8C280.245 194.847 280.704 194.893 281.164 194.939Z" fill="#1E2124"/>
<path fill-rule="evenodd" clip-rule="evenodd" d="M249.114 81.1932C249.083 81.5948 249.052 81.9968 249.021 82.3973C249.052 81.995 249.083 81.594 249.114 81.1932Z" fill="#1E2124"/>
<path fill-rule="evenodd" clip-rule="evenodd" d="M277.703 97.9407C277.735 97.5599 277.766 97.1791 277.797 96.7998C277.766 97.1812 277.734 97.5608 277.703 97.9407Z" fill="#1E2124"/>
<path fill-rule="evenodd" clip-rule="evenodd" d="M248.931 87.424C248.898 87.8251 248.865 88.2259 248.832 88.6256C248.865 88.2242 248.898 87.824 248.931 87.424Z" fill="#1E2124"/>
<path fill-rule="evenodd" clip-rule="evenodd" d="M277.509 113.313C277.506 112.925 277.503 112.538 277.5 112.151C277.751 112.538 277.741 112.924 277.509 113.313Z" fill="#1E2124"/>
<path fill-rule="evenodd" clip-rule="evenodd" d="M234.307 168.969C234.304 169.357 234.3 169.746 234.296 170.133C234.039 169.741 234.09 169.354 234.307 168.969Z" fill="#1E2124"/>
<path fill-rule="evenodd" clip-rule="evenodd" d="M263.594 124.027C263.549 123.634 263.504 123.24 263.459 122.848C263.504 123.242 263.549 123.635 263.594 124.027Z" fill="#1E2124"/>
<path fill-rule="evenodd" clip-rule="evenodd" d="M21.0898 87.9405C20.7852 88.3422 20.3702 88.067 20.0081 88.1159C20.369 88.0573 20.7294 87.9991 21.0898 87.9405Z" fill="#1E2124"/>
<path fill-rule="evenodd" clip-rule="evenodd" d="M171.734 178.796C171.349 178.797 170.964 178.797 170.579 178.798C170.964 178.797 171.349 178.797 171.734 178.796Z" fill="#1E2124"/>
<path fill-rule="evenodd" clip-rule="evenodd" d="M233.224 89.591C233.26 89.9177 233.296 90.2443 233.332 90.5698C233.296 90.2426 233.26 89.9168 233.224 89.591Z" fill="#1E2124"/>
<path fill-rule="evenodd" clip-rule="evenodd" d="M43.0149 57.1504C42.628 57.158 42.2411 57.1656 41.8541 57.1733C42.2369 56.9485 42.6227 56.8834 43.0149 57.1504Z" fill="#1E2124"/>
<path fill-rule="evenodd" clip-rule="evenodd" d="M248.921 93.0743C248.896 93.4169 248.871 93.7591 248.847 94.1002C248.872 93.7576 248.896 93.416 248.921 93.0743Z" fill="#1E2124"/>
<path fill-rule="evenodd" clip-rule="evenodd" d="M238.31 51.0283C238.341 50.7161 238.37 50.4039 238.4 50.0934C238.37 50.4062 238.341 50.7173 238.31 51.0283Z" fill="#1E2124"/>
<path fill-rule="evenodd" clip-rule="evenodd" d="M235.27 50.0502C235.239 50.3889 235.209 50.7279 235.179 51.0654C235.209 50.7261 235.239 50.388 235.27 50.0502Z" fill="#1E2124"/>
<path fill-rule="evenodd" clip-rule="evenodd" d="M67.1959 27.4231C66.8022 27.4708 66.4084 27.5185 66.015 27.5659C66.4087 27.5182 66.8022 27.4708 67.1959 27.4231Z" fill="#1E2124"/>
<path fill-rule="evenodd" clip-rule="evenodd" d="M38.7583 57.4199C38.3543 57.4611 37.9503 57.5023 37.5465 57.5435C37.9506 57.5023 38.3546 57.4611 38.7583 57.4199Z" fill="#1E2124"/>
<path fill-rule="evenodd" clip-rule="evenodd" d="M260.166 58.4128C260.191 58.0976 260.215 57.7821 260.24 57.4688C260.215 57.7842 260.19 58.0985 260.166 58.4128Z" fill="#1E2124"/>
<path fill-rule="evenodd" clip-rule="evenodd" d="M25.4969 110.427C25.7296 110.43 25.962 110.434 26.1911 110.437C25.9576 110.434 25.7272 110.43 25.4969 110.427Z" fill="#1E2124"/>
<path fill-rule="evenodd" clip-rule="evenodd" d="M235.282 149.325C235.258 149.674 235.235 150.023 235.212 150.371C235.235 150.022 235.259 149.674 235.282 149.325Z" fill="#1E2124"/>
<path fill-rule="evenodd" clip-rule="evenodd" d="M259.019 81.4071C259.009 81.0707 259 80.7347 258.99 80.3992C259 80.7359 259.01 81.0713 259.019 81.4071Z" fill="#1E2124"/>
<path fill-rule="evenodd" clip-rule="evenodd" d="M77.1071 26.6273C76.7481 26.6273 76.3892 26.6276 76.0309 26.6276C76.3898 26.3816 76.7484 26.3877 77.1071 26.6273Z" fill="#1E2124"/>
<path fill-rule="evenodd" clip-rule="evenodd" d="M172.93 105.793C172.537 105.803 172.144 105.813 171.752 105.823C172.138 105.551 172.531 105.544 172.93 105.793Z" fill="#1E2124"/>
<path fill-rule="evenodd" clip-rule="evenodd" d="M207.286 196.818C207.519 196.823 207.752 196.828 207.982 196.833C207.748 196.829 207.517 196.823 207.286 196.818Z" fill="#1E2124"/>
<path fill-rule="evenodd" clip-rule="evenodd" d="M216.062 197.227C216.294 197.219 216.527 197.21 216.756 197.202C216.523 197.211 216.292 197.219 216.062 197.227Z" fill="#1E2124"/>
<path fill-rule="evenodd" clip-rule="evenodd" d="M78.7179 197.388C78.9606 197.395 79.2033 197.401 79.4428 197.407C79.1992 197.4 78.9586 197.395 78.7179 197.388Z" fill="#1E2124"/>
<path fill-rule="evenodd" clip-rule="evenodd" d="M280.918 160.83C280.883 160.497 280.849 160.164 280.814 159.833C280.849 160.166 280.883 160.498 280.918 160.83Z" fill="#1E2124"/>
<path fill-rule="evenodd" clip-rule="evenodd" d="M249.219 104.772C249.246 105.089 249.274 105.405 249.301 105.72C249.274 105.403 249.246 105.087 249.219 104.772Z" fill="#1E2124"/>
<path fill-rule="evenodd" clip-rule="evenodd" d="M261.418 99.3302C261.38 98.9942 261.342 98.6581 261.305 98.3232C261.343 98.6596 261.38 98.9948 261.418 99.3302Z" fill="#1E2124"/>
<path fill-rule="evenodd" clip-rule="evenodd" d="M80.6871 197.589C80.9319 197.585 81.1769 197.581 81.4191 197.578C81.1731 197.582 80.9301 197.585 80.6871 197.589Z" fill="#1E2124"/>
<path fill-rule="evenodd" clip-rule="evenodd" d="M169.832 197.615C170.07 197.604 170.308 197.594 170.543 197.583C170.305 197.594 170.068 197.605 169.832 197.615Z" fill="#1E2124"/>
<path fill-rule="evenodd" clip-rule="evenodd" d="M259.427 74.7913C259.416 74.4508 259.405 74.1103 259.394 73.7705C259.405 74.1112 259.416 74.4511 259.427 74.7913Z" fill="#1E2124"/>
<path fill-rule="evenodd" clip-rule="evenodd" d="M57.4758 197.811C57.7147 197.809 57.9533 197.807 58.189 197.806C57.9489 197.808 57.7127 197.81 57.4758 197.811Z" fill="#1E2124"/>
<path fill-rule="evenodd" clip-rule="evenodd" d="M259.327 197.808C259.572 197.81 259.818 197.813 260.06 197.815C259.814 197.813 259.57 197.81 259.327 197.808Z" fill="#1E2124"/>
<path fill-rule="evenodd" clip-rule="evenodd" d="M264.628 197.779C264.865 197.796 265.102 197.813 265.336 197.829C265.098 197.812 264.863 197.796 264.628 197.779Z" fill="#1E2124"/>
<path fill-rule="evenodd" clip-rule="evenodd" d="M266.769 197.774C267.011 197.782 267.252 197.789 267.49 197.794C267.248 197.787 267.009 197.781 266.769 197.774Z" fill="#1E2124"/>
<path fill-rule="evenodd" clip-rule="evenodd" d="M277.762 100.68C277.746 100.345 277.731 100.01 277.715 99.676C277.731 100.011 277.746 100.346 277.762 100.68Z" fill="#1E2124"/>
<path fill-rule="evenodd" clip-rule="evenodd" d="M115.752 193.385C116.486 193.347 117.221 193.309 117.955 193.27C117.221 193.309 116.486 193.347 115.752 193.385Z" fill="#1E2124"/>
<path fill-rule="evenodd" clip-rule="evenodd" d="M71.4581 71.6164C72.0955 71.6717 72.7328 71.7271 73.3695 71.7818C72.7322 71.7268 72.0952 71.6714 71.4581 71.6164Z" fill="#1E2124"/>
<path fill-rule="evenodd" clip-rule="evenodd" d="M251.404 99.2637C251.424 99.8705 251.444 100.477 251.464 101.082C251.444 100.475 251.424 99.8696 251.404 99.2637Z" fill="#1E2124"/>
<path fill-rule="evenodd" clip-rule="evenodd" d="M264.557 194.422C265.222 194.463 265.887 194.503 266.553 194.543C265.883 194.573 265.204 194.764 264.557 194.422Z" fill="#1E2124"/>
<path fill-rule="evenodd" clip-rule="evenodd" d="M260.62 122.648C260.625 122.069 260.63 121.49 260.634 120.913C260.629 121.492 260.625 122.07 260.62 122.648Z" fill="#1E2124"/>
<path fill-rule="evenodd" clip-rule="evenodd" d="M258.917 140.834C259.5 140.842 260.085 140.849 260.668 140.857C260.084 140.849 259.5 140.842 258.917 140.834Z" fill="#1E2124"/>
<path fill-rule="evenodd" clip-rule="evenodd" d="M111.962 130.658C111.947 131.099 111.933 131.54 111.919 131.979C111.933 131.538 111.948 131.098 111.962 130.658Z" fill="#1E2124"/>
<path fill-rule="evenodd" clip-rule="evenodd" d="M268.632 111.979C268.608 112.418 268.584 112.857 268.561 113.294C268.585 112.854 268.609 112.417 268.632 111.979Z" fill="#1E2124"/>
<path fill-rule="evenodd" clip-rule="evenodd" d="M256.178 192.469C256.603 192.44 257.027 192.412 257.451 192.384C257.132 192.639 256.811 192.661 256.178 192.469Z" fill="#1E2124"/>
<path fill-rule="evenodd" clip-rule="evenodd" d="M253.336 135.087C253.365 135.56 253.394 136.033 253.423 136.505C253.394 136.031 253.365 135.559 253.336 135.087Z" fill="#1E2124"/>
<path fill-rule="evenodd" clip-rule="evenodd" d="M94.5455 60.3997C94.5499 59.9427 94.5543 59.4857 94.559 59.0304C94.5546 59.488 94.5502 59.9439 94.5455 60.3997Z" fill="#1E2124"/>
<path fill-rule="evenodd" clip-rule="evenodd" d="M253.85 140.93L255.433 140.895C254.91 141.147 254.383 141.156 253.85 140.93Z" fill="#1E2124"/>
<path fill-rule="evenodd" clip-rule="evenodd" d="M268.453 144.302C268.079 144.305 267.706 144.308 267.336 144.312C267.71 144.309 268.082 144.306 268.453 144.302Z" fill="#1E2124"/>
<path fill-rule="evenodd" clip-rule="evenodd" d="M131.765 192.651C132.282 192.658 132.798 192.664 133.315 192.671C132.794 192.931 132.277 192.968 131.765 192.651Z" fill="#1E2124"/>
<path fill-rule="evenodd" clip-rule="evenodd" d="M251.586 103.161C251.611 103.636 251.637 104.111 251.663 104.584C251.637 104.109 251.611 103.635 251.586 103.161Z" fill="#1E2124"/>
<path fill-rule="evenodd" clip-rule="evenodd" d="M84.2055 72.7314C84.6476 72.5139 85.0932 72.4774 85.5433 72.7079C85.097 72.7158 84.6514 72.7237 84.2055 72.7314Z" fill="#1E2124"/>
<path fill-rule="evenodd" clip-rule="evenodd" d="M237.125 108.645C237.161 109.046 237.198 109.446 237.235 109.846C237.198 109.445 237.161 109.045 237.125 108.645Z" fill="#1E2124"/>
<path fill-rule="evenodd" clip-rule="evenodd" d="M274.47 99.297C274.243 98.905 274.251 98.5151 274.481 98.1287C274.477 98.5186 274.474 98.908 274.47 99.297Z" fill="#1E2124"/>
<path fill-rule="evenodd" clip-rule="evenodd" d="M251.658 85.6896C251.658 86.086 251.659 86.4827 251.659 86.8779C251.658 86.4806 251.658 86.0851 251.658 85.6896Z" fill="#1E2124"/>
<path fill-rule="evenodd" clip-rule="evenodd" d="M267.506 140.645C267.961 140.505 268.416 140.309 268.869 140.649C268.414 140.648 267.96 140.646 267.506 140.645Z" fill="#1E2124"/>
<path fill-rule="evenodd" clip-rule="evenodd" d="M57.6835 193.206C58.1029 193.023 58.5213 192.926 58.9345 193.221C58.5172 193.216 58.1005 193.211 57.6835 193.206Z" fill="#1E2124"/>
<path fill-rule="evenodd" clip-rule="evenodd" d="M143.465 192.616C143.914 192.421 144.361 192.313 144.804 192.63C144.357 192.625 143.912 192.621 143.465 192.616Z" fill="#1E2124"/>
<path fill-rule="evenodd" clip-rule="evenodd" d="M43.6378 134.726C43.6714 135.13 43.7054 135.534 43.7387 135.937C43.7048 135.532 43.6711 135.129 43.6378 134.726Z" fill="#1E2124"/>
<path fill-rule="evenodd" clip-rule="evenodd" d="M147.752 111.454C148.194 111.294 148.633 111.21 149.066 111.477C148.628 111.469 148.19 111.462 147.752 111.454Z" fill="#1E2124"/>
<path fill-rule="evenodd" clip-rule="evenodd" d="M251.579 123.48C251.603 123.875 251.628 124.27 251.652 124.664C251.628 124.269 251.603 123.875 251.579 123.48Z" fill="#1E2124"/>
<path fill-rule="evenodd" clip-rule="evenodd" d="M43.3526 87.8466C43.3161 88.1647 43.2795 88.4831 43.2432 88.7995C43.2798 88.4808 43.3161 88.1638 43.3526 87.8466Z" fill="#1E2124"/>
<path fill-rule="evenodd" clip-rule="evenodd" d="M17.7793 180.098C17.7566 180.408 17.7342 180.718 17.7118 181.025C17.7351 180.715 17.7572 180.407 17.7793 180.098Z" fill="#1E2124"/>
<path fill-rule="evenodd" clip-rule="evenodd" d="M260.815 125.57C260.791 125.25 260.766 124.93 260.741 124.611C260.766 124.932 260.791 125.251 260.815 125.57Z" fill="#1E2124"/>
<path fill-rule="evenodd" clip-rule="evenodd" d="M111.813 133.382C111.886 133.615 111.96 133.849 112.033 134.082C111.543 134.2 111.469 133.967 111.813 133.382Z" fill="#1E2124"/>
<path fill-rule="evenodd" clip-rule="evenodd" d="M141.291 110.927C141.69 110.925 142.09 110.924 142.489 110.922C142.09 111.111 141.691 111.241 141.291 110.927Z" fill="#1E2124"/>
<path fill-rule="evenodd" clip-rule="evenodd" d="M43.8617 136.639C43.8753 136.992 43.8888 137.345 43.9018 137.697C43.8879 137.344 43.8747 136.991 43.8617 136.639Z" fill="#1E2124"/>
<path fill-rule="evenodd" clip-rule="evenodd" d="M238.094 140.362C238.108 140.687 238.123 141.012 238.137 141.336C238.123 141.01 238.109 140.686 238.094 140.362Z" fill="#1E2124"/>
<path fill-rule="evenodd" clip-rule="evenodd" d="M39.9032 193.989C40.2822 193.738 40.662 193.76 41.0425 193.985C40.6626 193.987 40.2828 193.988 39.9032 193.989Z" fill="#1E2124"/>
<path fill-rule="evenodd" clip-rule="evenodd" d="M49.8828 83.304C49.9032 83.6359 49.9238 83.9681 49.945 84.298C49.9247 83.9655 49.9038 83.6347 49.8828 83.304Z" fill="#1E2124"/>
<path fill-rule="evenodd" clip-rule="evenodd" d="M37.9314 194.023C38.3254 194.025 38.7194 194.027 39.1131 194.028C38.7179 194.297 38.3242 194.309 37.9314 194.023Z" fill="#1E2124"/>
<path fill-rule="evenodd" clip-rule="evenodd" d="M256.111 78.0933C256.114 77.7561 256.117 77.4191 256.12 77.0828C256.117 77.4203 256.114 77.7567 256.111 78.0933Z" fill="#1E2124"/>
<path fill-rule="evenodd" clip-rule="evenodd" d="M75.221 72.1961C75.5979 72.2453 75.9748 72.2944 76.3514 72.3433C75.9745 72.2941 75.5976 72.2453 75.221 72.1961Z" fill="#1E2124"/>
<path fill-rule="evenodd" clip-rule="evenodd" d="M41.9609 101.299C41.9659 101.614 41.9709 101.929 41.9768 102.243C41.9718 101.927 41.9665 101.613 41.9609 101.299Z" fill="#1E2124"/>
<path fill-rule="evenodd" clip-rule="evenodd" d="M258.649 101.254C258.628 100.933 258.607 100.612 258.587 100.293C258.607 100.614 258.628 100.934 258.649 101.254Z" fill="#1E2124"/>
<path fill-rule="evenodd" clip-rule="evenodd" d="M170.741 193.647C171.206 193.689 171.671 193.731 172.136 193.773C171.67 193.731 171.206 193.689 170.741 193.647Z" fill="#1E2124"/>
<path fill-rule="evenodd" clip-rule="evenodd" d="M169.187 181.634C168.935 181.638 168.684 181.642 168.435 181.648C168.687 181.644 168.937 181.639 169.187 181.634Z" fill="#1E2124"/>
<path fill-rule="evenodd" clip-rule="evenodd" d="M169.208 193.464C169.598 193.502 169.988 193.54 170.378 193.579C169.988 193.54 169.598 193.502 169.208 193.464Z" fill="#1E2124"/>
<path fill-rule="evenodd" clip-rule="evenodd" d="M99.0103 167.253C99.5178 170.115 95.061 172.913 94.7077 168.846C94.5785 167.358 95.5753 166.312 96.6916 165.403C98.2759 164.112 99.161 165.348 99.0103 167.253Z" fill="#1E2124"/>
<path fill-rule="evenodd" clip-rule="evenodd" d="M49.8842 132.342C50.9342 132.771 58.9557 135.379 54.7891 136.691C53.6861 137.038 52.0189 137.09 51.0628 136.478C49.9126 135.742 48.7523 133.569 49.8842 132.342Z" fill="#1E2124"/>
<path fill-rule="evenodd" clip-rule="evenodd" d="M51.8585 93.5911C54.5812 93.2756 57.0898 97.7377 53.733 97.5929C51.2896 97.4872 48.0036 93.5911 51.8585 93.5911Z" fill="#1E2124"/>
<path fill-rule="evenodd" clip-rule="evenodd" d="M61.5983 104.532C63.8718 106.511 59.6577 110.941 57.9846 109.226C57.1302 108.351 57.9182 106.464 58.6234 105.731C59.3471 104.979 60.6348 104.838 61.5983 104.532Z" fill="#1E2124"/>
<path fill-rule="evenodd" clip-rule="evenodd" d="M68.3667 155.843C67.0245 156.056 61.1219 157.98 62.3529 154.485C62.8225 153.152 64.1319 153.547 65.329 153.609C67.2584 153.707 68.3667 153.615 68.3667 155.843Z" fill="#1E2124"/>
<path fill-rule="evenodd" clip-rule="evenodd" d="M64.4788 164.847C66.4881 165.92 63.5509 171.922 61.8855 170.645C59.5748 168.873 62.7352 165.386 64.4788 164.847Z" fill="#1E2124"/>
<path fill-rule="evenodd" clip-rule="evenodd" d="M73.2421 160.022C74.2192 159.624 78.825 164.044 77.0717 165.274C76.173 165.904 74.4704 164.824 73.9287 164.172C72.913 162.95 72.8209 161.443 73.2421 160.022Z" fill="#1E2124"/>
<path fill-rule="evenodd" clip-rule="evenodd" d="M46.6687 123.89C47.6673 124.053 49.3914 124.105 49.456 125.505C49.5126 126.736 47.9664 127.135 46.8778 127.231C45.7483 127.331 44.253 127.013 44.2315 125.596C44.2088 124.068 46.6333 124.16 46.6687 123.89Z" fill="#1E2124"/>
<path fill-rule="evenodd" clip-rule="evenodd" d="M71.2941 184.819C72.3576 185.463 77.3182 187.783 75.1918 189.458C74.3961 190.085 71.9839 188.79 71.441 188.132C70.793 187.346 70.1598 185.506 71.2941 184.819Z" fill="#1E2124"/>
<path fill-rule="evenodd" clip-rule="evenodd" d="M85.0841 167.989C84.9304 165.428 89.2593 164.409 88.3618 168.043C88.1088 169.068 87.864 170.623 86.5944 170.683C85.0938 170.753 85.0396 168.982 85.0841 167.989Z" fill="#1E2124"/>
<path fill-rule="evenodd" clip-rule="evenodd" d="M71.7117 123.468C71.7418 125.411 68.0122 127.123 67.9833 124.045C67.9577 121.294 71.8509 120.489 71.7117 123.468Z" fill="#1E2124"/>
<path fill-rule="evenodd" clip-rule="evenodd" d="M69.2488 113.353C70.1678 113.649 71.3891 113.801 71.4699 114.966C71.5557 116.199 70.4079 116.748 69.3751 116.678C68.528 116.622 67.2746 115.996 67.1207 115.079C66.8951 113.733 68.2116 113.645 69.2488 113.353Z" fill="#1E2124"/>
<path fill-rule="evenodd" clip-rule="evenodd" d="M52.1605 148.911C52.1448 147.308 55.3636 145.382 55.9564 147.242C56.146 147.837 54.629 150.505 54.1243 150.705C52.7892 151.233 52.6028 150.001 52.1605 148.911Z" fill="#1E2124"/>
<path fill-rule="evenodd" clip-rule="evenodd" d="M78.5368 175.584C77.4492 176.556 74.1864 179.285 74.4303 175.621C74.5861 173.281 78.8238 173.404 78.5368 175.584Z" fill="#1E2124"/>
<path fill-rule="evenodd" clip-rule="evenodd" d="M131.694 186.054C132.051 184.513 137.155 187.185 135.452 189.131C134.88 189.784 133.386 189.193 132.811 188.806C131.673 188.04 131.648 187.333 131.694 186.054Z" fill="#1E2124"/>
<path fill-rule="evenodd" clip-rule="evenodd" d="M103.254 153.084C103.453 152.398 103.674 151.183 104.33 150.745C105.518 149.952 106.553 151.148 106.553 152.409C106.553 154.76 103.871 155.502 103.254 153.084Z" fill="#1E2124"/>
<path fill-rule="evenodd" clip-rule="evenodd" d="M90.6024 180.575C91.9277 180.878 94.8787 184.092 93.1673 185.404C91.5202 186.666 89.3295 181.535 90.6024 180.575Z" fill="#1E2124"/>
<path fill-rule="evenodd" clip-rule="evenodd" d="M91.864 156.242C93.5681 156.378 95.9104 159.131 93.2617 159.569C91.1898 159.911 88.7803 156.916 91.864 156.242Z" fill="#1E2124"/>
<path fill-rule="evenodd" clip-rule="evenodd" d="M107.291 168.912C107.719 167.476 111.945 169.015 111.708 170.596C111.581 171.437 109.853 171.635 108.945 171.412C107.608 171.085 107.261 170.21 107.291 168.912Z" fill="#1E2124"/>
<path fill-rule="evenodd" clip-rule="evenodd" d="M57.4741 88.6924C57.5048 86.8355 61.0807 86.0786 61.3426 87.9499C61.5794 89.6405 57.4293 91.4394 57.4741 88.6924Z" fill="#1E2124"/>
<path fill-rule="evenodd" clip-rule="evenodd" d="M106.11 188.046C106.368 187.112 106.479 185.988 107.648 185.865C108.986 185.724 108.947 186.748 108.789 187.809C108.361 190.696 106.726 190.841 106.11 188.046Z" fill="#1E2124"/>
<path fill-rule="evenodd" clip-rule="evenodd" d="M49.6395 110.785C47.7753 111.204 44.361 107.622 46.4478 106.853C47.9183 106.311 49.6395 109.704 49.6395 110.785Z" fill="#1E2124"/>
<path fill-rule="evenodd" clip-rule="evenodd" d="M73.4167 138.612C72.4679 139.058 72.2494 139.328 71.5206 138.597C70.886 137.96 70.914 136.185 71.4587 135.522C73.545 132.984 73.496 137.585 73.4167 138.612Z" fill="#1E2124"/>
<path fill-rule="evenodd" clip-rule="evenodd" d="M81.1572 133.465C82.1467 133.591 85.0868 136.373 83.5558 137.479C81.6798 138.834 80.6184 134.59 81.1572 133.465Z" fill="#1E2124"/>
<path fill-rule="evenodd" clip-rule="evenodd" d="M102.565 134.198C101.846 136.961 100.05 135.102 100.152 133.011C100.316 129.661 102.176 132.578 102.565 134.198Z" fill="#1E2124"/>
<path fill-rule="evenodd" clip-rule="evenodd" d="M113.481 178.582C114.698 179.084 116.349 183.725 114.611 183.974C112.659 184.253 113.309 179.548 113.481 178.582Z" fill="#1E2124"/>
<path fill-rule="evenodd" clip-rule="evenodd" d="M98.2848 175.974C99.6771 175.505 100.187 178.436 99.3781 178.98C97.5976 180.178 97.9731 176.666 98.2848 175.974Z" fill="#1E2124"/>
<path fill-rule="evenodd" clip-rule="evenodd" d="M85.0841 167.989C85.0664 168.378 85.049 168.767 85.0307 169.153C85.0481 168.764 85.0658 168.376 85.0841 167.989Z" fill="#1E2124"/>
<path fill-rule="evenodd" clip-rule="evenodd" d="M131.694 186.054C131.68 186.453 131.665 186.851 131.65 187.248C131.664 186.849 131.679 186.451 131.694 186.054Z" fill="#1E2124"/>
<path fill-rule="evenodd" clip-rule="evenodd" d="M107.291 168.912C107.284 169.251 107.276 169.589 107.267 169.926C107.274 169.586 107.283 169.249 107.291 168.912Z" fill="#1E2124"/>
<path fill-rule="evenodd" clip-rule="evenodd" d="M261.299 163.088C264.185 162.996 267.406 161.912 270.242 162.257C271.023 162.352 272.821 162.548 271.57 163.704C270.971 164.256 268.107 163.971 267.24 164.154C261.94 165.274 255.923 165.996 250.489 165.903C247.945 165.859 245.382 165.656 242.839 165.521C240.298 165.387 240.048 164.357 242.907 164.029C245.877 163.689 248.924 163.815 251.908 163.812C255.046 163.808 258.168 163.297 261.299 163.088Z" fill="#1E2124"/>
<path fill-rule="evenodd" clip-rule="evenodd" d="M267.636 156.149C267.358 156.938 267.114 158.75 266.05 158.869C264.558 159.035 264.312 156.48 264.367 155.546C264.433 154.418 264.84 152.545 266.245 152.936C267.431 153.265 267.55 155.246 267.636 156.149Z" fill="#1E2124"/>
<path fill-rule="evenodd" clip-rule="evenodd" d="M258.609 155.571C258.827 154.726 258.934 152.82 260.132 152.755C261.471 152.683 261.853 154.669 261.844 155.62C261.836 156.523 261.501 158.229 260.435 158.438C258.989 158.721 258.86 156.537 258.609 155.571Z" fill="#1E2124"/>
<path fill-rule="evenodd" clip-rule="evenodd" d="M243.575 157.087C243.141 158.103 242.854 159.502 241.512 158.809C240.473 158.274 240.329 156.114 240.524 155.125C240.727 154.1 241.157 152.925 242.337 153.385C243.698 153.917 243.56 155.969 243.575 157.087Z" fill="#1E2124"/>
<path fill-rule="evenodd" clip-rule="evenodd" d="M254.96 156.149C253.68 160.019 251.346 157.401 252.232 154.511C253.159 151.491 254.842 154.424 254.96 156.149Z" fill="#1E2124"/>
<path fill-rule="evenodd" clip-rule="evenodd" d="M248.725 156.341C248.369 157.022 247.991 158.492 247.033 158.337C245.859 158.147 245.821 155.892 245.95 155.052C246.062 154.317 246.393 153.092 247.376 153.108C248.797 153.131 248.701 155.458 248.725 156.341Z" fill="#1E2124"/>
<path fill-rule="evenodd" clip-rule="evenodd" d="M274.251 157.084C273.298 159.216 271.988 157.379 272.407 155.864C273.029 153.618 274.197 155.608 274.251 157.084Z" fill="#1E2124"/>
<path fill-rule="evenodd" clip-rule="evenodd" d="M250.921 163.814C249.881 163.81 248.84 163.806 247.8 163.803C248.841 163.607 249.882 163.531 250.921 163.814Z" fill="#1E2124"/>
<path fill-rule="evenodd" clip-rule="evenodd" d="M271.596 162.248C270.693 162.254 269.791 162.259 268.889 162.265C269.79 161.996 270.692 161.99 271.596 162.248Z" fill="#1E2124"/>
<path fill-rule="evenodd" clip-rule="evenodd" d="M243.575 157.087C243.568 156.57 243.561 156.052 243.555 155.536C243.822 156.051 243.803 156.567 243.575 157.087Z" fill="#1E2124"/>
<path fill-rule="evenodd" clip-rule="evenodd" d="M249.236 165.892C249.655 165.895 250.073 165.899 250.489 165.903C250.069 165.899 249.652 165.895 249.236 165.892Z" fill="#1E2124"/>
<path fill-rule="evenodd" clip-rule="evenodd" d="M242.203 165.521C242.627 165.521 243.052 165.521 243.473 165.521C243.047 165.521 242.625 165.521 242.203 165.521Z" fill="#1E2124"/>
<path fill-rule="evenodd" clip-rule="evenodd" d="M245.681 163.859C245.091 163.907 244.501 163.956 243.912 164.004C244.501 163.956 245.091 163.907 245.681 163.859Z" fill="#1E2124"/>
<path fill-rule="evenodd" clip-rule="evenodd" d="M253.656 163.808C253.073 163.809 252.491 163.81 251.908 163.811C252.491 163.567 253.073 163.56 253.656 163.808Z" fill="#1E2124"/>
<path fill-rule="evenodd" clip-rule="evenodd" d="M248.725 156.34C248.71 155.801 248.696 155.262 248.683 154.724C248.697 155.263 248.711 155.802 248.725 156.34Z" fill="#1E2124"/>
<path fill-rule="evenodd" clip-rule="evenodd" d="M240.525 155.125C240.521 155.65 240.518 156.176 240.514 156.7C240.517 156.174 240.521 155.649 240.525 155.125Z" fill="#1E2124"/>
<path fill-rule="evenodd" clip-rule="evenodd" d="M264.608 162.893C264.093 162.939 263.578 162.985 263.064 163.032C263.579 162.985 264.094 162.939 264.608 162.893Z" fill="#1E2124"/>
<path fill-rule="evenodd" clip-rule="evenodd" d="M274.251 157.084C274.234 156.624 274.217 156.165 274.201 155.706C274.218 156.166 274.234 156.624 274.251 157.084Z" fill="#1E2124"/>
<path fill-rule="evenodd" clip-rule="evenodd" d="M252.347 165.907C252.706 165.9 253.064 165.893 253.419 165.887C253.059 165.894 252.703 165.901 252.347 165.907Z" fill="#1E2124"/>
<path fill-rule="evenodd" clip-rule="evenodd" d="M267.636 156.149C267.604 155.819 267.573 155.488 267.542 155.159C267.573 155.49 267.605 155.819 267.636 156.149Z" fill="#1E2124"/>
<path fill-rule="evenodd" clip-rule="evenodd" d="M254.96 156.149C254.937 155.81 254.913 155.471 254.89 155.133C254.914 155.472 254.937 155.811 254.96 156.149Z" fill="#1E2124"/>
<path fill-rule="evenodd" clip-rule="evenodd" d="M70.151 56.5294C68.7416 56.1604 68.4773 54.1841 68.7038 52.9702C68.9607 52.3852 69.2176 51.8005 69.4744 51.2155C69.3739 50.9992 69.2736 50.7829 69.1733 50.5666C69.3022 49.3619 68.9728 48.8384 70.3604 49.3263C72.938 50.2332 73.35 56.4364 70.151 56.5294Z" fill="#1E2124"/>
<path fill-rule="evenodd" clip-rule="evenodd" d="M91.0144 52.7083C92.1755 52.6171 94.2844 53.9663 93.1286 55.2717C92.4126 56.0804 90.0529 55.6978 89.0903 55.8667C87.8136 56.0907 86.482 56.397 87.1727 54.489C87.7151 52.9905 89.6521 52.6692 91.0144 52.7083Z" fill="#1E2124"/>
<path fill-rule="evenodd" clip-rule="evenodd" d="M89.7925 61.683C88.6131 60.7393 89.1396 56.4409 90.9345 57.2142C92.781 58.0102 90.7767 61.0627 89.7925 61.683Z" fill="#1E2124"/>
<path fill-rule="evenodd" clip-rule="evenodd" d="M68.7038 52.9702C68.7038 53.4225 68.7035 53.8751 68.7026 54.3253C68.4567 53.8722 68.4643 53.4211 68.7038 52.9702Z" fill="#1E2124"/>
<path fill-rule="evenodd" clip-rule="evenodd" d="M70.151 56.5294C70.3914 56.5227 70.632 56.5156 70.8694 56.5094C70.6279 56.5171 70.3896 56.5233 70.151 56.5294Z" fill="#1E2124"/>
<path fill-rule="evenodd" clip-rule="evenodd" d="M215.778 180.319C215.668 182.275 213.564 180.829 213.713 179.521C213.984 177.148 215.329 179.493 215.778 180.319Z" fill="#1E2124"/>
</svg>
